<?xml version="1.0" encoding="UTF-8"?>
<svg width="106.48mm" height="6.6394mm" version="1.1" viewBox="0 0 106.48 6.6394" xmlns="http://www.w3.org/2000/svg" xmlns:xlink="http://www.w3.org/1999/xlink">
	<defs>
		<linearGradient id="linearGradient834" x1="45.546" x2="169.52" y1="138.63" y2="140.14" gradientTransform="translate(10.571 -19.643)" gradientUnits="userSpaceOnUse">
			<stop stop-color="#499343" offset="0"/>
			<stop stop-color="#c7ff8e" offset="1"/>
		</linearGradient>
	</defs>
	<g transform="translate(-53.876 -115.74)">
		<path d="m94.822 120.63c-4.0746-0.19254-8.4807-0.2846-9.7913-0.20458-3.3705 0.2058-28.201 0.22201-28.839 0.0188-0.36666-0.11679-0.54592-0.43219-0.5858-1.0307-0.03161-0.47436-0.11976-1.1168-0.1959-1.4276-0.09576-0.3909 0.0035-0.60202 0.32205-0.6848 0.65398-0.16998 36.989 0.0329 38.428 0.2146 2.5949 0.32762 19.314 0.34109 24.077 0.0194 6.5714-0.44381 36.985-0.29556 39.126 0.19071 1.3615 0.30921 1.4642 0.38634 1.4756 1.108l0.0122 0.7756-5.5964 0.0322c-3.078 0.0177-6.1737 0.12548-6.8792 0.23947-0.70551 0.114-6.8787 0.22864-13.718 0.25476-6.9078 0.0264-13.67 0.17829-15.214 0.34176-4.3914 0.46516-14.555 0.53364-22.622 0.15242z" fill="url(#linearGradient834)" stroke-width=".26458"/>
	</g>
</svg>
