<?xml version="1.0" encoding="UTF-8"?>
<svg width="99.362mm" height="26.56mm" version="1.1" viewBox="0 0 99.362 26.56" xmlns="http://www.w3.org/2000/svg">
	<path d="m10.184 15.173c-0.10773-0.16483-0.19588-0.79319-0.19588-1.3963 0-0.82208 0.24151-1.2956 0.9646-1.8914 0.91676-0.75536 1.3908-0.77575 9.5583-0.41133 4.7266 0.21091 20.786 0.38766 35.687 0.39282 14.901 5e-3 28.416 0.16898 30.033 0.36409 2.8996 0.3499 3.4706 0.71205 2.9918 1.8975-0.41429 1.0256-10.225 1.4453-24.017 1.0273-14.577-0.44177-50.959-0.42483-53.303 0.0248-0.83779 0.16073-1.6114 0.15731-1.7191-8e-3z" stroke-width=".34023"/>
</svg>
