<?xml version="1.0" encoding="UTF-8" standalone="no"?>
<!-- Created with Inkscape (http://www.inkscape.org/) -->

<svg
   xmlns:dc="http://purl.org/dc/elements/1.1/"
   xmlns:cc="http://creativecommons.org/ns#"
   xmlns:rdf="http://www.w3.org/1999/02/22-rdf-syntax-ns#"
   xmlns:svg="http://www.w3.org/2000/svg"
   xmlns="http://www.w3.org/2000/svg"
   xmlns:sodipodi="http://sodipodi.sourceforge.net/DTD/sodipodi-0.dtd"
   xmlns:inkscape="http://www.inkscape.org/namespaces/inkscape"
   width="84.151039mm"
   height="6.97932mm"
   viewBox="0 0 84.151039 6.9793204"
   version="1.1"
   id="svg8"
   inkscape:version="0.92.5 (2060ec1f9f, 2020-04-08)"
   sodipodi:docname="Déco-délice-2.svg">
  <defs
     id="defs2" />
  <sodipodi:namedview
     id="base"
     pagecolor="#ffffff"
     bordercolor="#666666"
     borderopacity="1.0"
     inkscape:pageopacity="0.0"
     inkscape:pageshadow="2"
     inkscape:zoom="1.4"
     inkscape:cx="-77.036946"
     inkscape:cy="-16.91134"
     inkscape:document-units="mm"
     inkscape:current-layer="layer1"
     showgrid="false"
     fit-margin-top="0"
     fit-margin-left="0"
     fit-margin-right="0"
     fit-margin-bottom="0"
     inkscape:window-width="1722"
     inkscape:window-height="1017"
     inkscape:window-x="2110"
     inkscape:window-y="0"
     inkscape:window-maximized="1" />
  <metadata
     id="metadata5">
    <rdf:RDF>
      <cc:Work
         rdf:about="">
        <dc:format>image/svg+xml</dc:format>
        <dc:type
           rdf:resource="http://purl.org/dc/dcmitype/StillImage" />
        <dc:title />
      </cc:Work>
    </rdf:RDF>
  </metadata>
  <g
     inkscape:label="Calque 1"
     inkscape:groupmode="layer"
     id="layer1"
     transform="translate(-71.822153,-137.37955)">
    <path
       style="fill:#a56799;stroke-width:0.26458335;fill-opacity:1"
       d="m 136.58645,142.63569 c -7.47563,-0.53722 -29.26502,-1.20135 -48.456483,-1.47694 -6.955489,-0.0999 -12.491895,-0.27957 -12.303125,-0.39931 0.18877,-0.11975 2.843531,-0.21986 5.899468,-0.22247 11.209989,-0.01 41.20556,-0.81271 51.32917,-1.37434 7.6924,-0.42674 8.93947,-0.39698 11.22033,0.26783 1.07795,0.31419 3.25084,0.7148 4.82865,0.89025 1.5778,0.17544 2.86873,0.41418 2.86873,0.53053 0,0.11635 -0.4018,0.21154 -0.89288,0.21154 -1.35678,0 -7.32255,1.06006 -8.3337,1.48082 -0.95448,0.39718 -1.74947,0.40906 -6.16016,0.0921 z"
       id="path826"
       inkscape:connector-curvature="0" />
  </g>
</svg>
