<?xml version="1.0" encoding="UTF-8" standalone="no"?>
<!-- Created with Inkscape (http://www.inkscape.org/) -->

<svg
   xmlns:dc="http://purl.org/dc/elements/1.1/"
   xmlns:cc="http://creativecommons.org/ns#"
   xmlns:rdf="http://www.w3.org/1999/02/22-rdf-syntax-ns#"
   xmlns:svg="http://www.w3.org/2000/svg"
   xmlns="http://www.w3.org/2000/svg"
   xmlns:sodipodi="http://sodipodi.sourceforge.net/DTD/sodipodi-0.dtd"
   xmlns:inkscape="http://www.inkscape.org/namespaces/inkscape"
   width="149.41806mm"
   height="20.622833mm"
   viewBox="0 0 149.41806 20.622833"
   version="1.1"
   id="svg8"
   inkscape:version="0.92.5 (2060ec1f9f, 2020-04-08)"
   sodipodi:docname="La note enchantée.svg">
  <defs
     id="defs2" />
  <sodipodi:namedview
     id="base"
     pagecolor="#ffffff"
     bordercolor="#666666"
     borderopacity="1.0"
     inkscape:pageopacity="0.0"
     inkscape:pageshadow="2"
     inkscape:zoom="0.35"
     inkscape:cx="-184.97414"
     inkscape:cy="-4.5714646"
     inkscape:document-units="mm"
     inkscape:current-layer="layer1"
     showgrid="false"
     fit-margin-top="0"
     fit-margin-left="0"
     fit-margin-right="0"
     fit-margin-bottom="0"
     inkscape:window-width="1920"
     inkscape:window-height="1017"
     inkscape:window-x="1912"
     inkscape:window-y="-8"
     inkscape:window-maximized="1" />
  <metadata
     id="metadata5">
    <rdf:RDF>
      <cc:Work
         rdf:about="">
        <dc:format>image/svg+xml</dc:format>
        <dc:type
           rdf:resource="http://purl.org/dc/dcmitype/StillImage" />
        <dc:title></dc:title>
      </cc:Work>
    </rdf:RDF>
  </metadata>
  <g
     inkscape:label="Calque 1"
     inkscape:groupmode="layer"
     id="layer1"
     transform="translate(-31.932147,-127.00097)">
    <path
       style="fill:#3e1219;fill-opacity:1;stroke-width:0.26458335"
       d="m 81.283536,146.53763 c -1.629291,-1.90346 -1.87706,-2.68373 -1.860526,-5.85914 0.01297,-2.49184 -0.0402,-2.84427 -0.429165,-2.84427 -0.526804,0 -1.089522,-0.59771 -1.703851,-1.80982 -0.685389,-1.3523 -0.419859,-1.66668 1.242661,-1.47129 l 1.401911,0.16477 0.458496,-2.21214 c 0.252175,-1.21668 0.457946,-2.48377 0.457272,-2.81576 -0.0016,-0.74351 0.483264,-0.95608 1.392266,-0.61047 1.119754,0.42573 1.308656,1.0811 0.860063,2.98391 -0.605065,2.56651 -0.60891,2.5562 0.987589,2.64812 1.343263,0.0773 1.391721,0.10732 1.469694,0.90934 0.06761,0.69547 -0.06053,0.91511 -0.79375,1.36052 -0.480909,0.29213 -1.247661,0.60999 -1.70389,0.70634 l -0.829506,0.17518 -0.189341,2.52545 c -0.105556,1.40791 -0.08535,2.62944 0.04566,2.76044 0.136943,0.13695 0.643816,-0.10198 1.214758,-0.5726 0.538866,-0.44418 1.099958,-0.73331 1.24687,-0.64251 0.146913,0.0908 0.266449,0.7236 0.265637,1.40624 -0.0029,2.42044 -0.913988,4.28386 -2.094574,4.28386 -0.279702,0 -0.926923,-0.48877 -1.43827,-1.08617 z m 40.179114,0.87632 c -1.1246,-0.23241 -2.1176,-1.7312 -2.48516,-3.75097 l -0.16708,-0.91812 -0.65573,1.65089 c -0.78121,1.96681 -1.67668,3.02631 -2.46156,2.91248 -0.33871,-0.0491 -0.87876,-0.59676 -1.3643,-1.38347 -0.89455,-1.44941 -0.999,-2.74944 -0.47997,-5.97387 0.15226,-0.94589 0.24264,-1.75778 0.20084,-1.8042 -0.2485,-0.27601 -1.22079,3.23269 -1.47016,5.30536 -0.16225,1.34858 -0.40368,2.72735 -0.5365,3.06393 l -0.24151,0.61196 -0.78519,-0.55911 c -1.28162,-0.91259 -1.45694,-2.00985 -1.12431,-7.03652 0.27613,-4.17293 0.59213,-5.50638 1.16832,-4.93019 0.12645,0.12645 0.30272,0.84467 0.39171,1.59604 l 0.1618,1.36613 0.71531,-1.35242 c 0.83373,-1.57632 1.32095,-1.919 2.39349,-1.68343 1.72965,0.37989 2.16721,1.95812 1.56753,5.65389 -0.15053,0.92766 -0.22012,1.74021 -0.15466,1.80566 0.0655,0.0655 0.5063,-0.30658 0.97965,-0.82675 1.03515,-1.13756 1.55972,-1.20927 1.59593,-0.21817 0.0223,0.61114 0.0652,0.56321 0.26768,-0.29939 0.69398,-2.95605 3.02898,-6.24904 4.43109,-6.24904 1.02219,0 1.88947,0.8858 1.8882,1.92853 -10e-4,1.12815 -0.89002,4.23341 -1.24539,4.35187 -0.32489,0.1083 -0.87024,-1.29601 -0.87024,-2.24089 0,-2.08612 -2.42517,2.34931 -2.59907,4.75348 -0.0989,1.36762 -0.0576,1.52576 0.3988,1.52576 0.59684,0 2.48116,-1.17215 3.76012,-2.339 1.37858,-1.25776 1.71604,-0.67995 0.93743,1.60513 -0.76002,2.23053 -2.63877,3.7606 -4.21707,3.43443 z m 38.34492,-0.49782 c -0.36071,-0.38921 -1.00987,-1.32644 -1.44257,-2.08272 -0.73698,-1.28811 -0.78673,-1.55287 -0.78673,-4.18713 0,-2.15888 -0.0815,-2.81206 -0.35075,-2.81206 -0.77699,0 -2.30081,-2.52357 -1.9078,-3.15947 0.10976,-0.1776 0.70328,-0.21875 1.61298,-0.11184 1.12931,0.13273 1.44234,0.0901 1.45334,-0.19799 0.008,-0.20194 0.17049,-1.31966 0.36173,-2.48382 0.19125,-1.16417 0.29539,-2.25474 0.23143,-2.4235 -0.20266,-0.53473 0.91546,-0.66634 1.79536,-0.21133 0.82889,0.42864 0.83918,0.45755 0.68744,1.93186 -0.0847,0.82319 -0.2349,1.9432 -0.33371,2.4889 l -0.17967,0.99219 h 1.17232 c 2.68517,0 2.25436,2.14884 -0.58404,2.91314 l -0.99937,0.26911 -0.18646,2.48704 c -0.10256,1.36788 -0.10405,2.6204 -0.003,2.78339 0.12008,0.19429 0.50331,0.0152 1.11296,-0.52006 0.5114,-0.44901 1.06744,-0.77112 1.23567,-0.7158 0.48779,0.16042 0.50825,2.48972 0.0344,3.91634 -0.64356,1.9376 -1.76826,2.36996 -2.92321,1.12375 z m -113.272034,0.0476 c -0.310554,-0.21752 -0.889391,-0.96166 -1.286306,-1.65365 -0.991936,-1.72935 -0.986964,-3.22809 0.01646,-4.96232 1.752333,-3.02856 4.002924,-5.42396 5.096076,-5.42396 0.495641,0 1.647756,1.01749 1.647756,1.45521 0,0.12676 0.25948,0.50668 0.576623,0.84427 0.556432,0.59229 0.565697,0.69584 0.264583,2.95745 -0.171622,1.28902 -0.30657,2.80643 -0.299887,3.37202 l 0.01215,1.02835 1.413089,-1.55549 c 0.810652,-0.89235 1.538663,-1.47788 1.707639,-1.37345 0.722829,0.44673 -0.06057,3.79651 -1.164513,4.97946 -1.192837,1.27819 -2.227053,0.84358 -3.277336,-1.37725 l -0.725775,-1.53465 -0.728629,1.15171 c -0.688194,1.08782 -2.096098,2.48779 -2.501868,2.48779 -0.101976,0 -0.439502,-0.17797 -0.750057,-0.39549 z m 2.949131,-7.05153 c 0.996561,-1.86956 1.067885,-2.07798 0.711107,-2.07798 -0.58543,0 -3.213335,4.50891 -3.213335,5.51338 0,0.41669 1.673908,-1.88147 2.502228,-3.4354 z m 17.418593,6.85171 c -1.371907,-1.50038 -1.700769,-3.26782 -1.115666,-5.99605 0.156376,-0.72916 0.239596,-1.59823 0.184933,-1.93126 -0.162716,-0.99134 -1.215044,2.67871 -1.556158,5.42718 -0.166142,1.33869 -0.414239,2.55304 -0.55132,2.69857 -0.366956,0.38954 -1.709081,-1.21812 -2.096534,-2.51132 -0.264409,-0.88251 -0.240202,-1.83743 0.132752,-5.23712 0.250867,-2.2868 0.55826,-4.26055 0.683093,-4.38612 0.474062,-0.47683 0.802706,0.18168 0.814972,1.63298 l 0.01273,1.50574 0.790262,-1.53123 c 0.938999,-1.81944 1.684716,-2.27466 2.90094,-1.77089 1.384691,0.57356 1.740485,1.70021 1.362501,4.31448 -0.484116,3.34832 -0.481312,3.35686 0.717793,2.18596 1.361226,-1.3292 1.726777,-1.10057 1.49638,0.93587 -0.202297,1.78807 -0.720632,3.17467 -1.644269,4.39862 -0.762177,1.01 -1.380654,1.08674 -2.132406,0.26459 z m 20.601342,-0.0723 c -2.011373,-1.69246 -2.471764,-4.73867 -1.083027,-7.16593 0.445484,-0.77862 0.921734,-1.48475 1.058333,-1.56917 0.136602,-0.0844 0.248365,-0.42955 0.248365,-0.76695 0,-0.62676 0.677108,-1.41224 0.967271,-1.12208 0.0884,0.0884 0.661533,-0.13275 1.273623,-0.49146 1.453499,-0.85181 2.376516,-0.83601 3.202082,0.0548 0.877218,0.94653 1.033614,1.72033 0.540452,2.674 -0.637046,1.23191 -2.728122,3.40072 -3.644998,3.7805 -0.775542,0.32124 -0.867604,0.29676 -1.455809,-0.38707 l -0.627912,-0.72999 -0.406794,0.9736 c -0.640504,1.53294 -0.437775,2.09432 0.792636,2.19491 1.447223,0.11832 3.147181,-0.60234 4.306289,-1.82554 0.540668,-0.57057 1.077561,-1.0374 1.193096,-1.0374 0.115536,0 0.209879,0.68461 0.209654,1.52136 -7.94e-4,2.93489 -1.518486,4.56406 -4.251751,4.56406 -1.247696,0 -1.673654,-0.1225 -2.32151,-0.66763 z m 3.927837,-9.30057 c 0,-0.27342 -0.107651,-0.2878 -0.468299,-0.0626 -0.685112,0.42786 -1.650553,1.87569 -1.458238,2.18686 0.193101,0.31245 1.926537,-1.59891 1.926537,-2.12428 z m 10.664271,9.33424 c -1.10732,-0.93174 -1.93302,-2.76507 -1.93302,-4.29192 0,-1.22943 0.7872,-3.21613 1.7175,-4.33454 0.18156,-0.21828 0.44539,-0.75406 0.58629,-1.19062 0.16235,-0.50307 0.44146,-0.80045 0.76213,-0.81203 0.27827,-0.0101 0.92267,-0.27751 1.432,-0.59433 1.33121,-0.82807 2.25537,-0.74849 3.18991,0.2747 0.88573,0.96976 0.95524,1.47826 0.35952,2.63026 -0.57194,1.10601 -2.43279,3.08787 -3.33966,3.55683 -0.8089,0.41829 -1.57134,0.19609 -2.00869,-0.5854 -0.18965,-0.3389 -0.32057,-0.23599 -0.68989,0.5423 -0.70827,1.49257 -0.49839,2.11433 0.74811,2.21623 1.42812,0.11676 3.06089,-0.56678 4.33335,-1.81411 0.58847,-0.57685 1.13884,-1.04883 1.22302,-1.04883 0.0842,0 0.15307,0.71912 0.15307,1.59804 0,3.02211 -1.42181,4.48738 -4.35429,4.48738 -1.11849,0 -1.58838,-0.13669 -2.17935,-0.63396 z m 3.88781,-9.33595 c 0,-0.34242 -0.22553,-0.23407 -0.92604,0.44489 -0.50932,0.49366 -0.92282,1.14209 -0.91888,1.44097 0.006,0.46505 0.13965,0.40091 0.92604,-0.4449 0.50539,-0.54356 0.91888,-1.192 0.91888,-1.44096 z m 31.86772,9.71614 c -0.73647,-0.29826 -2.23524,-3.17449 -2.23089,-4.2812 0.005,-1.18273 1.73758,-4.27187 3.44347,-6.13838 2.07957,-2.27538 2.87768,-2.29223 4.33502,-0.0915 l 0.90868,1.37216 -0.23843,2.11667 c -0.13114,1.16417 -0.31412,2.62268 -0.40663,3.24114 -0.22972,1.53582 0.17234,1.45013 1.54693,-0.32972 1.54546,-2.0011 1.87102,-1.92984 1.74045,0.38096 -0.0888,1.57174 -0.22121,1.98267 -0.91638,2.84427 -1.44035,1.78517 -2.7606,1.3007 -3.781,-1.38746 l -0.48487,-1.27735 -0.40497,0.77762 c -0.48475,0.93084 -2.39093,3.03349 -2.72856,3.00981 -0.1315,-0.009 -0.48376,-0.11586 -0.78282,-0.23698 z m 3.04898,-7.57469 c 0.46935,-0.95339 0.7991,-1.7877 0.73278,-1.85402 -0.34091,-0.34091 -3.38611,4.40928 -3.3593,5.24015 0.02,0.61927 1.75729,-1.62048 2.62652,-3.38613 z m 11.56434,6.96854 c -0.35295,-0.47294 -0.77572,-1.11995 -0.93951,-1.43781 -0.37807,-0.73374 -0.38324,-2.94939 -0.0103,-4.43032 0.15809,-0.62783 0.24125,-1.4247 0.18479,-1.77081 -0.15981,-0.97978 -1.23133,2.77684 -1.57234,5.51242 -0.15939,1.27873 -0.36888,2.41316 -0.46552,2.52095 -0.29794,0.33231 -1.32462,-0.57441 -1.8775,-1.65814 -0.28909,-0.56667 -0.52562,-1.48227 -0.52562,-2.03466 0,-1.23276 0.74113,-7.68628 0.96384,-8.39275 0.15761,-0.49998 0.17042,-0.50036 0.5249,-0.0156 0.19984,0.2733 0.36907,1.09923 0.37607,1.8354 l 0.0127,1.33849 0.78038,-1.5117 c 0.95437,-1.84874 1.51667,-2.20792 2.79569,-1.7858 1.49443,0.4932 1.87076,1.59084 1.47763,4.30986 -0.48412,3.34832 -0.48131,3.35686 0.71779,2.18596 1.32749,-1.29626 1.73205,-1.09156 1.51374,0.76592 -0.3165,2.69297 -1.73391,5.42847 -2.81277,5.42847 -0.27623,0 -0.79101,-0.38695 -1.14396,-0.8599 z m 13.41036,0.31892 c -0.5179,-0.3318 -1.05324,-1.04989 -1.42232,-1.90782 -0.95426,-2.21826 -0.95183,-3.01426 0.0147,-4.82724 0.4655,-0.87313 1.13879,-2.16231 1.4962,-2.86485 0.40717,-0.80035 0.78066,-1.22715 1.00016,-1.14292 0.19269,0.0739 0.74254,-0.15493 1.2219,-0.50859 1.1922,-0.87957 2.40751,-0.84823 3.27986,0.0846 1.31101,1.40189 1.13081,2.30334 -0.92731,4.63908 -1.81892,2.06426 -3.43482,2.54127 -3.94419,1.1643 -0.19779,-0.53467 -0.23457,-0.51765 -0.6602,0.30542 -0.24791,0.47941 -0.41383,1.19116 -0.36872,1.58168 0.0692,0.59888 0.22701,0.72382 1.00807,0.79806 1.43904,0.13678 2.74209,-0.38501 4.172,-1.67063 0.72159,-0.64877 1.38777,-1.10379 1.48041,-1.01116 0.0926,0.0926 0.16842,0.77551 0.16842,1.51751 0,1.63435 -0.65282,2.96973 -1.85195,3.78824 -1.16218,0.79329 -3.47169,0.82018 -4.66707,0.0543 z m 3.05203,-8.06718 c 0.86493,-0.98512 1.09552,-1.79927 0.43815,-1.54701 -0.45538,0.17475 -1.73366,1.79689 -1.73366,2.20002 0,0.52402 0.47012,0.28705 1.29551,-0.65301 z m 6.03732,8.04173 c -0.9951,-0.74221 -1.79174,-2.38493 -1.96346,-4.04882 -0.14937,-1.44723 0.0685,-2.07118 1.48343,-4.24829 0.3783,-0.58208 0.74842,-1.35599 0.82248,-1.71979 0.10078,-0.49506 0.3105,-0.66809 0.8337,-0.6878 0.38448,-0.0145 1.02455,-0.28238 1.42238,-0.59531 2.08444,-1.63962 4.69787,0.71796 3.37592,3.04542 -0.69545,1.22443 -2.31164,2.91021 -3.26046,3.40086 -0.75616,0.39103 -0.88146,0.39165 -1.46803,0.007 -0.35271,-0.2311 -0.64129,-0.56451 -0.64129,-0.7409 0,-0.17639 -0.24699,0.14011 -0.54887,0.70335 -0.7865,1.46744 -0.53025,2.27539 0.72165,2.27539 1.59179,0 2.91003,-0.54528 4.24586,-1.75629 l 1.2699,-1.15123 0.0782,1.5656 c 0.10622,2.1254 -0.40661,3.2779 -1.76748,3.97217 -1.44305,0.73619 -3.60149,0.72602 -4.60397,-0.0217 z m 3.5891,-8.73757 c 0.22405,-0.39037 0.33664,-0.78048 0.25021,-0.86691 -0.2573,-0.2573 -1.91173,1.50215 -1.91173,2.03308 0,0.47176 0.0229,0.47237 0.62709,0.0166 0.3449,-0.26016 0.81039,-0.79241 1.03443,-1.18278 z m -144.439722,8.53179 c -1.958327,-1.19413 -2.89677,-3.54412 -1.550263,-3.88208 0.610476,-0.15322 2.081303,0.008 2.883572,0.31564 0.486096,0.18653 1.203778,-2.22835 1.502027,-5.05406 0.138237,-1.30969 0.360061,-3.09562 0.492945,-3.96875 0.132882,-0.87312 0.387093,-2.62161 0.564912,-3.88553 0.363225,-2.58176 0.543973,-3.03645 1.073663,-2.70085 0.19817,0.12555 0.419841,0.23148 0.492601,0.23539 0.725046,0.039 1.888811,0.86691 2.230396,1.58674 0.585271,1.23337 0.530476,3.36921 -0.119105,4.6425 -0.613992,1.20352 -0.83588,1.27752 -1.378818,0.45981 -0.358251,-0.53955 -0.402278,-0.32707 -0.534517,2.57969 -0.07926,1.74222 -0.316671,3.64392 -0.527584,4.226 -0.210913,0.58209 -0.46342,1.38576 -0.561131,1.78594 l -0.177655,0.7276 h 1.473388 c 1.490536,0 2.65675,-0.41652 3.284715,-1.17318 0.57182,-0.689 0.808228,-0.47347 0.808228,0.73683 0,2.36735 -0.948126,3.87594 -2.435987,3.87594 -0.900271,0 -3.628588,-0.73528 -4.086818,-1.1014 -0.201221,-0.16077 -0.55218,-0.0148 -1.030822,0.42882 -0.867965,0.8044 -1.305795,0.83445 -2.403747,0.16495 z m 38.471343,-0.089 c -1.110446,-0.91296 -1.526469,-2.24925 -1.526469,-4.9031 0,-2.12714 0.339913,-3.97713 1.082781,-5.89308 0.362723,-0.9355 1.648852,-1.65309 2.591684,-1.44601 2.741126,0.60205 3.883523,6.46393 2.003978,10.28282 -1.240229,2.51992 -2.656967,3.1885 -4.151974,1.95937 z m 1.541153,-3.89148 c 0.566693,-0.85633 0.719479,-1.45885 0.833541,-3.28714 0.07682,-1.23125 0.05954,-2.44743 -0.03839,-2.70262 -0.308996,-0.80524 -0.856665,0.10424 -1.322218,2.19572 -0.396327,1.7805 -0.583086,4.84256 -0.295352,4.84256 0.0707,0 0.440783,-0.47183 0.822418,-1.04852 z m 58.109666,3.54943 c -0.89846,-1.08998 -1.48357,-3.32652 -1.2555,-4.79903 l 0.1563,-1.00917 -0.37428,1.05834 c -0.20585,0.58208 -0.59358,1.93546 -0.86162,3.00751 -0.26803,1.07206 -0.64088,2.00811 -0.82855,2.08013 -0.5366,0.20591 -1.1613,-0.47124 -1.83246,-1.98633 -0.80647,-1.82053 -0.83915,-5.25117 -0.0864,-9.07027 0.36546,-1.85419 0.44819,-2.80188 0.26396,-3.02387 -0.31102,-0.37475 2.04542,-5.38581 2.54479,-5.41158 0.48407,-0.025 0.85749,0.59981 1.03975,1.73964 0.13537,0.84652 0.0309,1.3432 -0.50513,2.40095 -0.40349,0.79624 -0.78535,2.17334 -0.94765,3.41748 -0.14952,1.14611 -0.38123,2.73868 -0.51491,3.53904 -0.13369,0.80037 -0.21138,1.48899 -0.17265,1.53026 0.0948,0.10103 1.46372,-2.80397 1.46372,-3.10615 0,-0.47221 1.79383,-2.12827 2.30534,-2.12827 0.28768,0 0.74987,0.25076 1.02709,0.55725 0.66611,0.73645 0.65814,3.93264 -0.0156,6.26298 -0.26411,0.91347 -0.40282,1.73822 -0.30825,1.83279 0.0946,0.0946 0.50463,-0.1468 0.91126,-0.53637 0.40664,-0.38958 0.83555,-0.70832 0.95315,-0.70832 0.1176,0 0.16825,0.80634 0.11257,1.79186 -0.0753,1.33201 -0.25731,2.01102 -0.70934,2.64583 -0.78419,1.1013 -1.40635,1.07902 -2.36559,-0.0847 z m 37.54754,-12.26509 c -0.6009,-0.37738 0.12407,-2.01901 1.63162,-3.69466 0.73734,-0.81956 1.4304,-1.52732 1.54013,-1.5728 0.10973,-0.0455 0.44508,0.16289 0.74522,0.46302 0.75183,0.75183 0.72457,2.15024 -0.0548,2.8131 -2.1271,1.80903 -3.2393,2.38249 -3.86214,1.99134 z"
       id="path826"
       inkscape:connector-curvature="0" />
  </g>
</svg>
