<?xml version="1.0" encoding="UTF-8" standalone="no"?>
<!-- Created with Inkscape (http://www.inkscape.org/) -->

<svg
   xmlns:dc="http://purl.org/dc/elements/1.1/"
   xmlns:cc="http://creativecommons.org/ns#"
   xmlns:rdf="http://www.w3.org/1999/02/22-rdf-syntax-ns#"
   xmlns:svg="http://www.w3.org/2000/svg"
   xmlns="http://www.w3.org/2000/svg"
   xmlns:xlink="http://www.w3.org/1999/xlink"
   xmlns:sodipodi="http://sodipodi.sourceforge.net/DTD/sodipodi-0.dtd"
   xmlns:inkscape="http://www.inkscape.org/namespaces/inkscape"
   width="209.14517mm"
   height="35.679062mm"
   viewBox="0 0 209.14517 35.679062"
   version="1.1"
   id="svg8"
   inkscape:version="0.92.5 (2060ec1f9f, 2020-04-08)"
   sodipodi:docname="La palette du gout.svg">
  <defs
     id="defs2">
    <linearGradient
       inkscape:collect="always"
       id="linearGradient832">
      <stop
         style="stop-color:#379634;stop-opacity:1"
         offset="0"
         id="stop828" />
      <stop
         style="stop-color:#bfff81;stop-opacity:1"
         offset="1"
         id="stop830" />
    </linearGradient>
    <linearGradient
       inkscape:collect="always"
       xlink:href="#linearGradient832"
       id="linearGradient834"
       x1="7.9375"
       y1="35.440475"
       x2="202.37067"
       y2="58.397392"
       gradientUnits="userSpaceOnUse" />
  </defs>
  <sodipodi:namedview
     id="base"
     pagecolor="#ffffff"
     bordercolor="#666666"
     borderopacity="1.0"
     inkscape:pageopacity="0.0"
     inkscape:pageshadow="2"
     inkscape:zoom="0.7"
     inkscape:cx="-68.458649"
     inkscape:cy="-304.28906"
     inkscape:document-units="mm"
     inkscape:current-layer="layer1"
     showgrid="false"
     inkscape:window-width="1920"
     inkscape:window-height="1017"
     inkscape:window-x="1912"
     inkscape:window-y="-8"
     inkscape:window-maximized="1"
     fit-margin-top="0"
     fit-margin-left="0"
     fit-margin-right="0"
     fit-margin-bottom="0" />
  <metadata
     id="metadata5">
    <rdf:RDF>
      <cc:Work
         rdf:about="">
        <dc:format>image/svg+xml</dc:format>
        <dc:type
           rdf:resource="http://purl.org/dc/dcmitype/StillImage" />
        <dc:title></dc:title>
      </cc:Work>
    </rdf:RDF>
  </metadata>
  <g
     inkscape:label="Calque 1"
     inkscape:groupmode="layer"
     id="layer1"
     transform="translate(-1.1040891,-32.64446)">
    <path
       style="fill:url(#linearGradient834);fill-opacity:1;stroke-width:0.26458335"
       d="m 34.765157,67.739611 c -0.903621,-0.83745 -1.14949,-2.53588 -0.74585,-5.15221 0.352253,-2.28323 1.96849,-7.44505 3.452474,-11.02625 0.542711,-1.30968 1.493158,-3.78035 2.112105,-5.49037 0.618948,-1.71002 1.462276,-3.57422 1.874063,-4.14268 0.740767,-1.0226 0.760751,-1.03085 1.885368,-0.77816 0.625165,0.14046 1.346782,0.44554 1.603594,0.67795 0.509059,0.4607 0.619623,1.27329 0.20787,1.52777 -0.350414,0.21656 -2.122191,3.26102 -2.122191,3.64657 0,0.16913 0.625078,-0.29986 1.389063,-1.04219 1.700707,-1.65253 2.239015,-1.93951 3.63802,-1.93951 1.516246,0 2.05167,0.36353 2.390889,1.6233 0.69578,2.58393 -1.197803,7.949 -3.488028,9.8826 -2.073241,1.7504 -4.150022,2.5573 -5.423541,2.10723 -1.018868,-0.36008 -1.028718,-0.7475 -0.03645,-1.43348 1.206066,-0.83377 2.660586,-2.76245 4.042738,-5.36062 1.023101,-1.92323 2.084514,-4.92024 1.838917,-5.19237 -0.270951,-0.30022 -3.626739,2.81034 -3.410085,3.16088 0.08588,0.13896 0.04536,0.21994 -0.09004,0.17995 -0.34635,-0.10228 -2.26613,2.37801 -3.037856,3.9248 -1.262782,2.53103 -3.344511,8.94965 -4.489268,13.84181 -0.1847,0.78933 -0.463986,1.47697 -0.620636,1.5281 -0.156649,0.0511 -0.593672,-0.19328 -0.971158,-0.54312 z m 119.472153,0.0824 c -0.81341,-0.3223 -1.44208,-0.7548 -1.53844,-1.05839 -0.24709,-0.77853 0.07,-1.1011 0.73343,-0.74605 0.31102,0.16646 1.167,0.30388 1.90217,0.3054 1.52865,0.003 3.18992,-0.8167 4.55183,-2.24632 0.91666,-0.96225 2.64837,-4.04495 3.52351,-6.27238 0.73335,-1.86655 0.41655,-2.23245 -1.05184,-1.21486 -1.34513,0.93218 -2.43575,0.9699 -3.15273,0.10906 -1.8624,-2.23611 -1.23532,-5.79516 1.65104,-9.37066 1.77172,-2.19473 3.70318,-3.57413 5.90473,-4.21701 0.81356,-0.23757 2.80112,0.27021 3.20165,0.81796 0.49333,0.67468 0.31303,0.92668 -0.9245,1.29208 -1.8926,0.55881 -3.37934,1.87521 -6.08257,5.38567 -1.38751,1.80183 -2.66232,5.32026 -1.92766,5.32026 0.33227,0 2.49078,-1.92137 3.86409,-3.43958 1.17959,-1.30405 1.7565,-2.1972 3.03353,-4.69636 0.56881,-1.11317 1.00236,-1.65364 1.3265,-1.65364 0.78276,0 1.8388,0.4898 1.83986,0.85334 7.9e-4,0.30115 -0.79339,2.41125 -3.51312,9.33311 -2.34928,5.97906 -4.64578,9.58141 -7.09302,11.12628 -1.59032,1.00392 -4.25361,1.16252 -6.24846,0.37209 z M 2.521428,59.311231 c -1.132848,-0.9935 -1.63609609,-1.94963 -1.3285867,-2.52422 0.1466373,-0.27399 0.8189171,-1.85955 1.4939592,-3.52347 0.6750394,-1.66392 1.3374344,-3.13841 1.4719829,-3.27666 0.1345513,-0.13824 0.243676,-0.49543 0.2424986,-0.79375 -0.00106,-0.29831 0.3519567,-1.43536 0.7847383,-2.52677 0.885108,-2.2321 1.8499006,-5.40701 2.6435051,-8.69917 0.6909858,-2.86645 0.8400124,-3.04642 2.0902454,-2.52417 1.0818972,0.45193 2.3404802,1.55652 2.5593862,2.24623 0.07938,0.2501 -0.160528,1.14404 -0.533122,1.98654 -0.372592,0.8425 -0.699551,1.79895 -0.726573,2.12545 -0.02702,0.3265 -0.133339,0.54159 -0.236262,0.47799 -0.102923,-0.0636 -0.331145,0.33192 -0.507159,0.87897 -0.176016,0.54704 -0.468701,1.29228 -0.6504116,1.65608 -0.1817105,0.3638 -0.5762334,1.3163 -0.8767154,2.11667 -1.5308369,4.07751 -2.4969656,6.56527 -2.843157,7.32106 -0.2113095,0.46133 -0.457536,1.20547 -0.5471716,1.65364 -0.1480688,0.74034 -0.1010232,0.81488 0.5143315,0.81488 0.3725201,0 1.0027021,-0.12371 1.4004079,-0.27492 0.8826076,-0.33557 1.8530385,-0.50515 3.9824612,-0.69595 1.526262,-0.13674 1.6559,-0.10393 2.06679,0.52317 0.283413,0.43254 0.409249,1.07421 0.35597,1.81515 l -0.08241,1.14609 -3.307292,0.16485 c -1.8190102,0.0907 -4.2002602,0.24445 -5.2916665,0.34174 -1.8258367,0.16276 -2.0396095,0.12845 -2.6757445,-0.42943 z m 63.640593,-0.65818 c -1.296075,-1.69924 -1.181767,-4.18985 0.438862,-9.56226 0.278169,-0.92214 0.67701,-2.05324 0.886314,-2.51354 0.209302,-0.46031 0.55725,-1.37271 0.773219,-2.02755 0.829198,-2.51424 3.503199,-8.29532 4.713475,-10.19035 1.21866,-1.90815 1.785485,-2.05048 3.462346,-0.86943 0.400182,0.28186 0.729427,0.41507 0.731655,0.29602 0.0021,-0.11905 0.119467,-0.0379 0.260532,0.18042 0.359579,0.55641 0.325779,1.22353 -0.08282,1.63475 -0.734092,0.73878 -2.827592,3.77934 -2.827592,4.10673 0,0.18917 -0.0893,0.34495 -0.198437,0.34618 -0.2364,0.003 -1.952046,3.33836 -2.584434,5.02484 -0.245547,0.65485 -0.545502,1.3849 -0.666565,1.62234 -0.944015,1.85153 -3.165147,10.7527 -3.165147,12.68431 0,0.60362 -1.063519,0.1563 -1.741403,-0.73246 z m 59.632579,-0.031 c -1.12673,-0.57104 -1.52682,-0.96133 -2.03399,-1.98418 -0.59071,-1.19133 -0.6123,-1.38869 -0.3354,-3.06536 0.58731,-3.5563 2.66581,-7.15606 5.30428,-9.1865 1.28943,-0.99228 2.44725,-1.15624 3.40881,-0.48274 0.32342,0.22653 0.60175,0.31583 0.61851,0.19844 0.13569,-0.95056 -1.11509,-4.80842 -1.99929,-6.16657 -1.76373,-2.70911 -1.82365,-2.86852 -1.34997,-3.59145 0.46293,-0.70653 1.90022,-1.69757 2.46435,-1.69923 0.55444,-0.002 1.9944,2.27894 2.80826,4.44762 1.99407,5.3136 1.95496,9.78936 -0.12811,14.6631 -1.59305,3.72725 -4.01511,6.57263 -6.13884,7.21178 -1.15993,0.34909 -1.28063,0.33319 -2.61861,-0.34491 z m 2.41684,-1.53667 c 0.70243,-0.41493 2.45783,-2.81301 3.28752,-4.49111 0.52763,-1.06717 1.49197,-4.75987 1.49197,-5.71313 0,-0.40915 -0.11872,-0.74391 -0.26383,-0.74391 -0.56165,0 -2.46419,2.02618 -3.8254,4.07403 -2.18525,3.28755 -2.92783,5.52747 -2.25147,6.79128 0.33371,0.62353 0.62015,0.63873 1.56121,0.0828 z m -41.130838,1.3715 c -2.723145,-1.36255 -2.893111,-3.12788 -0.881658,-9.15728 0.899657,-2.69676 0.914402,-2.89779 0.212542,-2.89779 -0.36086,0 -0.662755,-0.28732 -0.903518,-0.8599 -0.502248,-1.19443 -0.126785,-1.59116 1.302957,-1.37676 0.793414,0.11898 1.186736,0.0589 1.414981,-0.21611 0.624078,-0.75197 1.594012,-2.79504 1.419331,-2.98968 -0.09805,-0.10925 -0.05921,-0.13168 0.08631,-0.0499 0.145521,0.0818 0.56224,-0.25172 0.926042,-0.74123 0.880155,-1.18429 1.105347,-1.24281 2.719554,-0.7068 1.598192,0.5307 1.801649,0.993 0.913826,2.0764 -0.343842,0.41959 -0.895006,1.20937 -1.224812,1.75507 l -0.599643,0.99219 h 0.793689 c 1.119613,0 1.630719,0.24688 1.630719,0.78767 0,0.4554 -1.241578,0.93833 -2.890588,1.12433 -0.60756,0.0685 -1.476852,1.29151 -1.955586,2.75124 -0.08949,0.27288 -0.465434,1.38911 -0.835425,2.48051 -0.928005,2.73745 -1.164518,4.99717 -0.568632,5.4329 0.484823,0.35451 2.361798,0.0765 2.98708,-0.44245 0.181256,-0.15042 0.454155,-0.1965 0.606444,-0.10238 0.464875,0.28731 -0.167177,1.12472 -1.383054,1.83241 -1.734355,1.00946 -2.278899,1.05387 -3.770561,0.30751 z m 10.937287,0.19897 c -1.545949,-0.51585 -2.570072,-1.55942 -2.776061,-2.82878 -0.189243,-1.16618 0.764535,-5.43779 1.689748,-7.56774 0.585473,-1.34782 0.598244,-1.47282 0.181616,-1.77746 -0.246478,-0.18023 -0.551881,-0.26358 -0.678672,-0.18522 -0.126794,0.0784 -0.396772,-0.25287 -0.599956,-0.73608 -0.523381,-1.2447 -0.155861,-1.59413 1.452284,-1.3808 l 1.265595,0.16789 0.585473,-1.14762 c 0.619678,-1.21467 1.564344,-2.64681 1.917824,-2.90746 0.11643,-0.0858 0.22945,-0.39183 0.25115,-0.67995 0.032,-0.42546 0.21594,-0.51568 0.97894,-0.48032 1.13831,0.0528 2.92384,0.77923 2.92384,1.18961 0,0.40549 -1.25653,2.52042 -1.73177,2.91483 -0.68273,0.56662 -0.43736,1.0121 0.60509,1.09857 0.72056,0.0598 1.01568,0.2175 1.08437,0.57958 0.12437,0.65551 -0.31997,0.89881 -2.03214,1.11274 l -1.41756,0.17711 -0.72537,1.61988 c -1.085146,2.42329 -1.801262,4.6327 -2.14925,6.63099 -0.28833,1.65572 -0.273013,1.8283 0.204666,2.30598 0.492649,0.49265 0.569926,0.49667 1.685504,0.0878 1.9789,-0.72528 2.09521,-0.74423 2.09521,-0.34151 0,0.48063 -1.20191,1.61199 -2.30196,2.16682 -1.002139,0.50545 -0.935691,0.50595 -2.508571,-0.0189 z m -23.398305,-0.3248 c -3.992497,-1.81307 -3.550098,-7.94952 0.898038,-12.45653 1.443056,-1.46216 2.06067,-1.88941 3.274465,-2.2652 1.490572,-0.46147 1.500568,-0.46085 2.778125,0.17249 1.227259,0.6084 1.285547,0.68757 1.361022,1.84851 0.115572,1.77778 -0.77579,3.9325 -2.151301,5.2004 -1.196478,1.10288 -4.024233,2.86731 -4.844674,3.02294 -0.591254,0.11215 -0.837237,1.89369 -0.343594,2.48849 0.705776,0.85041 2.63678,0.31875 4.278525,-1.178 1.459902,-1.33096 1.917435,-1.60326 2.298345,-1.36785 0.496192,0.30667 0.03288,1.0404 -1.562907,2.47516 -1.348637,1.21254 -3.728537,2.57066 -4.485923,2.55996 -0.226089,-0.003 -0.901144,-0.22837 -1.500121,-0.50037 z m 2.740117,-7.1006 c 1.353974,-1.03233 2.97914,-3.17422 2.97914,-3.92636 0,-0.82782 -0.197734,-0.80477 -1.535377,0.17894 -1.023583,0.75275 -1.237218,1.06334 -1.135232,1.65042 0.02085,0.11996 -0.07989,0.14532 -0.223832,0.0564 -0.214331,-0.13247 -1.603476,2.14354 -1.603476,2.62716 0,0.33369 0.631934,0.0897 1.518777,-0.58652 z m 30.214509,7.19145 c -0.86483,-0.26189 -1.4653,-0.68643 -2.11667,-1.4965 -0.8461,-1.05226 -0.90843,-1.25965 -0.89653,-2.98297 0.016,-2.31913 0.66882,-4.25631 2.15418,-6.39257 1.48983,-2.14267 2.99481,-3.39759 4.72868,-3.94295 1.69026,-0.53166 2.34171,-0.39965 3.5186,0.71298 0.78379,0.74099 0.87308,0.96129 0.75288,1.85747 -0.075,0.55923 -0.49495,1.78301 -0.9332,2.71953 -0.89388,1.91018 -1.75221,2.65493 -4.9545,4.29887 -1.79279,0.92035 -1.96998,1.08326 -1.97101,1.81228 -0.001,0.92901 0.64491,1.9771 1.21901,1.9771 0.82246,0 2.8557,-1.14251 4.02182,-2.25992 0.90974,-0.87174 1.29468,-1.08955 1.55044,-0.87729 0.4799,0.39827 0.11981,0.96002 -1.65542,2.58248 -2.35743,2.15455 -3.49685,2.57335 -5.41828,1.99149 z m 2.51161,-7.24278 c 1.22858,-0.97634 2.71484,-2.90354 2.9443,-3.81779 0.22017,-0.87723 -0.0698,-0.87712 -1.36306,5.3e-4 -1.22037,0.82816 -1.50246,1.16264 -2.36272,2.80149 -1.05376,2.00748 -0.8309,2.29716 0.78148,1.0158 z m 92.28485,7.21865 c -1.42473,-0.70223 -2.17558,-1.80186 -2.17558,-3.18615 0,-1.13349 1.3191,-6.28392 1.86576,-7.28487 0.45618,-0.83528 0.29184,-1.50459 -0.41285,-1.68145 -0.67219,-0.16871 -1.13491,-1.13984 -0.80074,-1.68054 0.095,-0.15379 0.73133,-0.2817 1.41397,-0.28424 l 1.24116,-0.005 1.05087,-1.76462 c 2.00517,-3.36704 2.65477,-3.75718 4.77846,-2.86985 1.13681,0.475 1.16992,1.07434 0.11644,2.10812 -0.43252,0.42444 -0.7864,0.91588 -0.7864,1.09209 0,0.17621 -0.17859,0.4686 -0.39687,0.64975 -0.61029,0.50649 -0.47449,0.79375 0.37523,0.79375 1.03263,0 1.60914,0.24379 1.60914,0.68046 0,0.50373 -0.74749,0.84758 -2.28622,1.0517 l -1.31942,0.17503 -0.82626,1.75839 c -0.45444,0.96711 -0.95194,2.1751 -1.10555,2.68442 -1.14968,3.81194 -1.36158,5.78456 -0.68194,6.34861 0.31678,0.2629 0.65477,0.24308 1.70336,-0.0999 0.71949,-0.23534 1.43462,-0.42788 1.58918,-0.42788 0.61311,0 0.20618,0.70548 -0.87754,1.52135 -1.30805,0.98477 -2.64861,1.12311 -4.0742,0.42045 z m -28.49835,-0.14609 c -1.95767,-1.1349 -2.77735,-3.65615 -2.11333,-6.50039 0.95602,-4.09495 4.1067,-7.84113 7.06078,-8.39532 0.81875,-0.1536 1.01678,-0.0673 1.82044,0.79379 0.49597,0.53137 1.28117,1.12718 1.74489,1.324 1.74475,0.74057 1.78048,4.17976 0.0785,7.55147 -1.01402,2.00877 -2.10739,3.13077 -4.34446,4.45828 -1.91325,1.13534 -3.20908,1.36974 -4.24677,0.76817 z m 3.46481,-2.16379 c 1.84519,-1.25209 3.11719,-3.4422 3.58556,-6.17352 0.3418,-1.99318 0.1648,-3.24798 -0.45813,-3.24798 -1.87745,0 -5.32208,4.88345 -5.59903,7.93772 -0.22257,2.45451 0.4479,2.85701 2.4716,1.48378 z m -160.797648,1.82069 c -0.782307,-0.42506 -0.955352,-0.77022 -1.304168,-2.60123 -0.282234,-1.48152 0.01225,-2.977 1.02421,-5.20137 0.364122,-0.80037 0.643427,-1.54451 0.620678,-1.65365 -0.02275,-0.10914 0.09754,-0.19844 0.267319,-0.19844 0.169772,0 0.241932,-0.0667 0.160353,-0.14833 -0.08158,-0.0816 0.10809,-0.409 0.421492,-0.7276 0.313399,-0.3186 0.807202,-0.87693 1.097338,-1.24073 2.078556,-2.60631 3.953965,-3.08363 5.571477,-1.41804 0.581591,0.59888 0.879862,1.12429 0.788556,1.38906 -0.08887,0.2577 0.05292,0.19079 0.359098,-0.16946 0.278273,-0.32742 0.748118,-0.59531 1.044099,-0.59531 0.295981,0 0.84318,0.26789 1.215993,0.59531 l 0.677847,0.59531 -0.615363,1.32292 c -1.618567,3.47961 -2.584209,8.10684 -1.889937,9.05632 0.235498,0.32206 0.257961,0.56797 0.07232,0.79165 -0.398508,0.48018 -1.931819,0.69468 -2.560524,0.35821 -0.678191,-0.36296 -1.155729,-2.03208 -0.919425,-3.21361 0.169522,-0.84759 0.117396,-0.81429 -1.256218,0.80269 -2.122696,2.49877 -3.302711,3.05634 -4.775144,2.2563 z m 3.239897,-2.97396 c 0.512196,-0.5457 1.132941,-1.28984 1.379434,-1.65364 1.434309,-2.11692 1.907667,-2.88975 2.873807,-4.69195 l 1.069726,-1.99542 -0.757108,0.19002 c -1.69341,0.42502 -3.582051,2.49788 -5.190572,5.69686 -0.683091,1.35851 -0.996561,3.44632 -0.51744,3.44632 0.115988,0 0.629957,-0.44649 1.142153,-0.99219 z m 32.472406,2.77681 c -1.012746,-0.85611 -1.282415,-1.55105 -1.276115,-3.28858 0.01807,-4.9847 4.963197,-11.40577 8.106389,-10.52588 0.413364,0.11571 0.84972,0.18791 0.969677,0.16043 0.119957,-0.0275 0.142132,0.073 0.04928,0.22322 -0.09286,0.15024 0.01736,0.45935 0.244917,0.68691 0.838033,0.83803 0.417732,1.75314 -0.964544,2.10007 -0.822386,0.20641 -3.119628,2.54439 -3.119628,3.17495 0,0.2331 -0.102542,0.36045 -0.22787,0.28299 -0.333729,-0.20625 -1.951008,3.01812 -1.801188,3.59104 0.07009,0.26802 0.01125,0.48731 -0.130781,0.48731 -0.36775,0 -0.155194,1.12742 0.236895,1.25653 0.33084,0.10893 2.981277,-2.46613 2.981277,-2.89649 0,-0.12895 0.128024,-0.37826 0.284499,-0.55402 0.423669,-0.47588 1.397508,-2.15786 2.731381,-4.71753 0.653846,-1.25471 1.358302,-2.34634 1.56546,-2.42583 0.207158,-0.0795 0.749385,0.0821 1.204947,0.35918 0.908341,0.55239 1.076468,1.35801 0.467172,2.23856 -0.557326,0.80544 -1.755756,4.84668 -1.932056,6.5151 -0.0869,0.82242 -0.03537,1.8471 0.114522,2.27707 0.379458,1.08852 0.07254,1.41693 -1.37551,1.47186 -1.524998,0.0579 -2.002081,-0.44729 -2.002081,-2.11979 0,-0.83699 -0.105503,-1.14005 -0.396875,-1.14005 -0.218282,0 -0.396875,0.10054 -0.396875,0.22343 0,0.72405 -3.159641,3.217 -4.074594,3.21483 -0.305589,-7.9e-4 -0.871821,-0.26861 -1.258295,-0.59531 z m 85.307985,-0.26327 c -1.64429,-1.15479 -1.69098,-2.16842 -0.29774,-6.46482 0.83557,-2.57669 3.12879,-6.66896 4.13005,-7.3701 0.45558,-0.31903 0.85431,-0.36623 1.69287,-0.20039 1.57749,0.31196 1.77155,0.79271 0.88613,2.19529 -1.78985,2.83531 -4.10099,8.29339 -4.10099,9.68508 0,0.58853 0.53747,0.42898 1.15255,-0.34215 2.37994,-2.98371 3.70823,-4.95732 4.32933,-6.43259 0.89951,-2.1366 1.91143,-3.82176 2.53067,-4.21434 0.3387,-0.21472 0.75948,-0.22175 1.49053,-0.0249 1.8082,0.4869 1.844,0.76073 0.47771,3.65409 -2.23426,4.73144 -2.38094,5.14655 -2.40381,6.80286 -0.0121,0.87312 0.079,1.97445 0.20237,2.4474 0.28426,1.08975 -0.1213,1.12942 -1.96987,0.19268 -1.15531,-0.58544 -1.35551,-0.81242 -1.63357,-1.85208 -0.1743,-0.65169 -0.39787,-1.18488 -0.49682,-1.18488 -0.0989,0 -0.85329,0.83344 -1.67631,1.85208 -1.36799,1.69313 -1.58092,1.85209 -2.48093,1.85209 -0.59342,0 -1.32123,-0.23648 -1.83217,-0.59532 z m 48.16132,0 c -1.56263,-1.10677 -1.60909,-3.83192 -0.12237,-7.17738 0.3154,-0.70972 0.57346,-1.38795 0.57346,-1.50718 0,-0.4368 1.94854,-3.52537 2.862,-4.53647 0.85587,-0.94733 1.025,-1.02509 1.88342,-0.86588 0.51872,0.0962 1.14372,0.35487 1.38889,0.5748 0.5297,0.47517 0.28132,1.23226 -0.89775,2.73641 -0.96351,1.22917 -3.38448,7.2038 -3.38448,8.35244 0,1.50925 0.13191,1.39292 3.32295,-2.9304 1.01412,-1.37397 1.16355,-1.63772 2.70064,-4.76665 0.71487,-1.45521 1.48846,-2.80175 1.71908,-2.99231 0.51481,-0.4254 2.09705,-0.17946 2.85513,0.44379 0.51693,0.425 0.49967,0.48782 -1.08855,3.96007 -1.78641,3.90557 -2.32669,6.19524 -1.86035,7.88417 0.34871,1.26294 0.0393,1.49517 -1.34259,1.00762 -1.26887,-0.44769 -2.31815,-1.60287 -2.3292,-2.56428 -0.0141,-1.22998 -0.4999,-0.95869 -2.09124,1.16795 -0.6168,0.82427 -1.30318,1.56841 -1.5253,1.65364 -0.81167,0.31147 -1.84298,0.14098 -2.66374,-0.44034 z m 11.49744,-15.93041 c -0.40018,-0.48241 -0.7276,-1.00257 -0.7276,-1.15591 0,-0.55938 -0.51749,-0.57221 -1.54199,-0.0382 -1.47261,0.76757 -2.70484,0.91764 -3.35281,0.40834 -0.52563,-0.41315 -0.52499,-0.41946 0.0955,-0.94492 0.34355,-0.29095 0.77808,-0.52899 0.96564,-0.52899 0.18756,0 0.95797,-0.67505 1.71203,-1.50011 1.23234,-1.34838 1.48226,-1.50226 2.47084,-1.52136 l 1.09982,-0.0212 0.17912,1.5875 c 0.0985,0.87312 0.36607,2.12328 0.59457,2.77812 0.2285,0.65485 0.41718,1.33946 0.4193,1.52136 0.008,0.64996 -1.19485,0.28279 -1.91438,-0.58458 z"
       id="path826"
       inkscape:connector-curvature="0" />
  </g>
</svg>
