<?xml version="1.0" encoding="UTF-8" standalone="no"?>
<!-- Created with Inkscape (http://www.inkscape.org/) -->

<svg
   xmlns:dc="http://purl.org/dc/elements/1.1/"
   xmlns:cc="http://creativecommons.org/ns#"
   xmlns:rdf="http://www.w3.org/1999/02/22-rdf-syntax-ns#"
   xmlns:svg="http://www.w3.org/2000/svg"
   xmlns="http://www.w3.org/2000/svg"
   xmlns:xlink="http://www.w3.org/1999/xlink"
   xmlns:sodipodi="http://sodipodi.sourceforge.net/DTD/sodipodi-0.dtd"
   xmlns:inkscape="http://www.inkscape.org/namespaces/inkscape"
   width="233.76077mm"
   height="21.23559mm"
   viewBox="0 0 233.76078 21.23559"
   version="1.1"
   id="svg8"
   inkscape:version="0.92.5 (2060ec1f9f, 2020-04-08)"
   sodipodi:docname="Le chic a la française.jpg.svg">
  <defs
     id="defs2">
    <linearGradient
       inkscape:collect="always"
       id="linearGradient840">
      <stop
         style="stop-color:#da832c;stop-opacity:1;"
         offset="0"
         id="stop836" />
      <stop
         style="stop-color:#9060f0;stop-opacity:1"
         offset="1"
         id="stop838" />
    </linearGradient>
    <linearGradient
       inkscape:collect="always"
       xlink:href="#linearGradient840"
       id="linearGradient842"
       x1="0.17008083"
       y1="101.47292"
       x2="224.13988"
       y2="92.514877"
       gradientUnits="userSpaceOnUse"
       gradientTransform="translate(-11.339286,41.955357)" />
  </defs>
  <sodipodi:namedview
     id="base"
     pagecolor="#ffffff"
     bordercolor="#666666"
     borderopacity="1.0"
     inkscape:pageopacity="0.0"
     inkscape:pageshadow="2"
     inkscape:zoom="0.7"
     inkscape:cx="-5.2113551"
     inkscape:cy="3.4988161"
     inkscape:document-units="mm"
     inkscape:current-layer="layer1"
     showgrid="false"
     fit-margin-top="0"
     fit-margin-left="0"
     fit-margin-right="0"
     fit-margin-bottom="0"
     inkscape:window-width="1920"
     inkscape:window-height="1017"
     inkscape:window-x="1912"
     inkscape:window-y="-8"
     inkscape:window-maximized="1" />
  <metadata
     id="metadata5">
    <rdf:RDF>
      <cc:Work
         rdf:about="">
        <dc:format>image/svg+xml</dc:format>
        <dc:type
           rdf:resource="http://purl.org/dc/dcmitype/StillImage" />
        <dc:title></dc:title>
      </cc:Work>
    </rdf:RDF>
  </metadata>
  <g
     inkscape:label="Calque 1"
     inkscape:groupmode="layer"
     id="layer1"
     transform="translate(15.630092,-128.52347)">
    <path
       style="fill:url(#linearGradient842);fill-opacity:1;stroke-width:0.26458335"
       d="m 167.59253,149.22991 c -0.80823,-0.63575 -0.85047,-0.848 -0.28189,-1.41658 0.55993,-0.55992 1.54771,-0.0751 1.35424,0.66469 -0.16584,0.63421 0.73954,0.71548 0.98033,0.088 0.36928,-0.96235 0.15709,-1.46204 -0.78867,-1.8572 -0.72706,-0.30379 -0.90583,-0.50191 -0.76373,-0.84639 0.46221,-1.12051 0.43116,-1.30814 -0.24461,-1.47774 -0.84062,-0.21099 -2.44625,-1.59453 -2.9251,-2.52052 -1.00993,-1.95301 -0.70781,-4.65493 0.69978,-6.25808 1.14593,-1.30514 2.15305,-1.75572 3.92432,-1.75572 2.4234,0 3.96277,1.0639 3.96277,2.73877 0,0.786 -0.14733,1.10265 -0.67345,1.44738 -0.58755,0.38497 -0.76069,0.39457 -1.35736,0.0753 -1.09834,-0.58782 -1.34142,-1.43049 -0.67331,-2.33415 l 0.56138,-0.7593 -0.58228,-0.10889 c -1.02082,-0.1909 -1.88238,0.18192 -2.48422,1.07499 -1.20655,1.79039 -1.11707,5.01782 0.17932,6.46846 0.64714,0.72414 0.92273,0.83957 1.95297,0.81804 0.87055,-0.0182 1.45738,-0.22176 2.13979,-0.74226 1.02918,-0.78499 1.70194,-0.71683 1.12034,0.11351 -0.66034,0.94276 -1.83613,1.67038 -3.19302,1.97593 -0.89634,0.20185 -1.38477,0.45545 -1.44133,0.74837 -0.0669,0.34659 0.11706,0.44306 0.84489,0.44306 1.97266,0 2.47396,2.65239 0.67694,3.58167 -1.04886,0.54238 -2.17049,0.48184 -2.9881,-0.16129 z m -50.7797,-2.26196 c -0.10355,-0.10355 -0.18828,-2.78781 -0.18828,-5.96501 v -5.77674 h -0.79375 c -0.52916,0 -0.79375,-0.13229 -0.79375,-0.39687 0,-0.26459 0.26459,-0.39688 0.79375,-0.39688 0.78987,0 0.79376,-0.007 0.79416,-1.52135 8e-4,-2.74238 1.39758,-4.3057 3.83605,-4.29326 1.13072,0.006 3.30729,0.85351 3.30729,1.28814 0,0.50165 -0.53219,0.5856 -1.11674,0.17617 -0.82172,-0.57555 -1.67846,-0.51374 -2.31253,0.16686 -0.4325,0.46423 -0.53948,0.93339 -0.53948,2.36603 v 1.78698 l 1.06301,0.0814 c 1.3738,0.10515 1.37729,0.58643 0.005,0.69164 l -1.05798,0.0811 -0.0712,5.87201 -0.0712,5.87201 -1.33308,0.078 c -0.73319,0.0429 -1.4178,-0.007 -1.52135,-0.11024 z M 0.00801028,144.49266 c -3.10086438,-0.73578 -4.84218518,-4.4608 -3.51789528,-7.52547 0.6960103,-1.61071 1.5218251,-2.39701 3.06919828,-2.92236 5.00715002,-1.69997 8.63388402,2.30824 4.83951002,5.34856 -0.912463,0.73113 -1.286795,0.85989 -2.499764,0.85989 -1.09169802,0 -1.42659702,-0.0932 -1.42659702,-0.39687 0,-0.21828 0.194302,-0.39688 0.431779,-0.39688 0.69124202,0 2.21405502,-1.79225 2.21405502,-2.6058 0,-1.62156 -1.519482,-2.46137 -2.49769102,-1.38046 -1.92332498,2.12525 -1.39360599,7.09623 0.83103502,7.79858 0.792255,0.25012 2.534354,-0.25271 3.120853,-0.90078 0.544031,-0.60115 1.191636,-0.70186 1.191636,-0.18531 0,0.60165 -1.679453,1.97713 -2.778125,2.27528 -1.186738,0.32206 -1.729674,0.32782 -2.97799402,0.0316 z m 18.38427372,-0.0854 c -6.000961,-1.9095 -4.631513,-10.79073 1.659345,-10.76128 1.192583,0.006 2.984093,0.82133 3.536818,1.61045 0.894842,1.27757 0.13018,3.14476 -1.287859,3.14476 -0.753986,0 -1.719792,-0.93853 -1.719792,-1.67123 0,-0.32575 0.185346,-0.85689 0.411877,-1.18031 0.401201,-0.5728 0.388776,-0.58804 -0.479274,-0.58804 -0.985534,0 -1.932242,0.71607 -2.330061,1.76242 -0.421667,1.10907 -0.296233,4.09329 0.215056,5.11644 0.862943,1.72685 2.901214,2.02001 4.527912,0.65123 0.425474,-0.35801 0.845696,-0.65093 0.933831,-0.65093 0.378955,0 0.112239,0.81845 -0.43507,1.33507 -1.393907,1.31573 -3.301199,1.78241 -5.032783,1.23142 z m 16.822167,0.0763 c -1.086591,-0.43669 -1.333252,-1.26015 -1.504892,-5.02402 -0.142851,-3.13255 -0.227931,-3.6258 -0.691732,-4.01037 -0.625044,-0.51827 -1.471351,-0.37622 -2.316718,0.38885 -0.566537,0.51272 -0.595313,0.72902 -0.595313,4.4746 v 3.93583 l -1.521354,-0.0794 -1.521354,-0.0794 -0.132292,-7.23416 -0.132292,-7.23417 -0.677957,0.53359 c -0.724932,0.57056 -1.496939,0.39307 -1.236978,-0.28438 0.228558,-0.59561 2.063459,-1.34692 3.289901,-1.34706 1.776799,-2.2e-4 1.932326,0.27622 1.932326,3.43454 v 2.75252 l 0.859896,-0.45645 c 0.541303,-0.28734 1.480394,-0.4614 2.534645,-0.46981 1.564505,-0.0125 1.725612,0.0435 2.447396,0.8507 0.770818,0.86203 0.772657,0.87236 0.776697,4.36563 0.0021,1.92585 0.109242,3.66767 0.237805,3.87071 0.16533,0.26111 0.551368,0.32656 1.318864,0.22362 0.596812,-0.08 1.085114,-0.10341 1.085114,-0.0519 0,0.0515 -0.386953,0.38259 -0.859896,0.73574 -0.982459,0.73361 -2.442308,1.04612 -3.291866,0.70469 z m 8.252804,-0.019 c -1.334794,-0.37985 -1.531626,-1.02535 -1.667357,-5.46799 -0.09418,-3.08269 -0.204888,-4.03489 -0.469114,-4.03489 -0.190212,0 -0.419425,0.11906 -0.509363,0.26458 -0.237786,0.38475 -1.190625,0.32453 -1.190625,-0.0752 0,-1.00817 3.512093,-1.87233 4.63069,-1.1394 0.656688,0.43028 0.661004,0.45923 0.665028,4.46189 0.0021,2.21583 0.109156,4.19478 0.237617,4.39765 0.171937,0.27153 0.530577,0.32136 1.359212,0.18886 1.012566,-0.16192 1.090303,-0.13742 0.77384,0.2439 -0.79824,0.96182 -2.604796,1.50929 -3.829928,1.16064 z m 9.789583,0.11266 c -0.291041,-0.0611 -0.80006,-0.16906 -1.131149,-0.23985 -0.868783,-0.18575 -2.671456,-1.90334 -3.117144,-2.97002 -0.573098,-1.37161 -0.490929,-3.70512 0.169659,-4.81817 1.540359,-2.59542 4.228018,-3.55187 6.755556,-2.40407 1.250839,0.56802 1.955067,1.43395 1.949236,2.39679 -0.005,0.8288 -0.218059,1.15886 -1.02121,1.58218 -1.396129,0.73585 -2.652278,-0.94663 -1.806723,-2.41993 l 0.426122,-0.74247 h -1.032563 c -1.470612,0 -2.440321,1.29061 -2.59698,3.45639 -0.156756,2.16714 0.104618,3.24911 1.022188,4.23137 0.71583,0.7663 0.90288,0.83386 1.974252,0.7131 0.723567,-0.0816 1.55275,-0.41503 2.13364,-0.8581 0.928947,-0.70854 0.948161,-0.71158 0.861584,-0.13627 -0.180171,1.19726 -2.98101,2.54628 -4.586468,2.20905 z m 16.56895,-0.0885 c -2.11868,-0.50635 -3.452331,-2.51198 -3.464621,-5.21033 -0.0086,-1.88216 0.259352,-2.73473 1.222608,-3.89048 0.97378,-1.16837 1.79333,-1.53196 3.543805,-1.5722 1.167823,-0.0268 1.662901,0.0841 2.086952,0.46791 0.52461,0.47477 0.57482,0.47728 0.891217,0.0446 0.257074,-0.35157 0.641829,-0.43917 1.649439,-0.37554 l 1.314151,0.083 0.132292,4.49791 0.132291,4.49792 1.256771,-0.0428 c 0.691224,-0.0236 1.256771,0.057 1.256771,0.17898 0,0.122 -0.625078,0.5266 -1.389063,0.89912 -1.625298,0.7925 -2.670535,0.71846 -3.580667,-0.25362 l -0.604107,-0.64522 -0.983393,0.6352 c -1.177867,0.76082 -2.256581,0.9743 -3.464446,0.68562 z m 3.073355,-1.46504 c 0.732774,-0.51326 1.12413,-1.91587 1.126011,-4.03559 0.0026,-2.83002 -1.055746,-4.30239 -2.781083,-3.86936 -1.005208,0.2523 -1.524302,1.33781 -1.661414,3.47432 -0.237011,3.69311 1.347422,5.80981 3.316486,4.43063 z m 16.693601,1.51056 c -0.24265,-0.0989 -0.68914,-0.49628 -0.992189,-0.88303 -0.522724,-0.6671 -0.551008,-1.0225 -0.551008,-6.92368 0,-7.22924 -0.08812,-7.72534 -1.178525,-6.63494 -0.413224,0.41323 -1.202725,0.34576 -1.202725,-0.10278 0,-0.40042 2.278208,-1.37812 3.211257,-1.37812 0.49738,0 1.16895,0.18534 1.49237,0.41187 0.58081,0.40682 0.58804,0.49266 0.58804,6.97907 0,7.32617 0.008,7.35793 1.72203,7.07974 1.32546,-0.21509 1.1391,0.19137 -0.45106,0.98378 -1.40781,0.70154 -1.86605,0.78284 -2.63819,0.46809 z m 8.41974,-0.1689 c -1.05594,-0.3765 -2.15224,-1.25265 -2.59476,-2.07371 -0.14089,-0.2614 -0.36399,-1.13782 -0.49578,-1.9476 -0.44355,-2.72527 0.50073,-5.06785 2.44892,-6.07529 1.11382,-0.57598 3.377546,-0.5517 4.289766,0.046 0.68284,0.44742 0.74995,0.44977 0.9824,0.0344 0.30701,-0.5486 2.39532,-0.61971 2.82967,-0.0963 0.17608,0.21216 0.31874,2.00524 0.36312,4.56406 l 0.0731,4.21461 1.32292,-0.0677 1.32291,-0.0677 -0.79375,0.65767 c -1.64565,1.36353 -3.65627,1.39054 -4.67867,0.0629 l -0.44533,-0.57832 -0.63678,0.59822 c -0.57607,0.54119 -2.026066,1.13271 -2.704146,1.10314 -0.14648,-0.006 -0.7241,-0.17483 -1.2836,-0.37432 z m 3.467076,-1.5323 c 0.81831,-0.87355 1.12208,-1.88213 1.12208,-3.72552 0,-1.87326 -0.59574,-3.26397 -1.65728,-3.8688 -0.92595,-0.52756 -1.952336,-0.0388 -2.457516,1.17027 -0.77764,1.86114 -0.30569,6.13568 0.75161,6.8076 0.61503,0.39086 1.687636,0.20729 2.241106,-0.38355 z m 28.46114,1.53253 c -0.46149,-0.20074 -0.9675,-0.60497 -1.12448,-0.89829 -0.16276,-0.30412 -0.28542,-2.03217 -0.28542,-4.02114 v -3.48784 l -0.59531,0.15954 c -0.32742,0.0877 -0.84995,0.16116 -1.16118,0.16315 -0.43538,0.003 -0.60564,0.21564 -0.73836,0.92309 -0.27884,1.48634 -0.91938,2.78469 -1.37384,2.78469 -0.30519,0 -0.38095,-0.16478 -0.27368,-0.59531 0.0816,-0.32742 0.22672,-1.08852 0.32253,-1.69133 0.16078,-1.01154 0.11775,-1.1237 -0.55826,-1.45521 -1.11882,-0.54866 -1.38877,-1.14959 -0.90522,-2.01512 0.6679,-1.19549 2.90207,-1.0338 2.90207,0.21003 0,0.68033 0.95863,0.67726 2.91042,-0.009 0.80037,-0.28154 1.66357,-0.51578 1.91823,-0.52053 0.506,-0.009 0.52708,0.15964 0.4656,3.73536 -0.0512,2.9773 0.2574,5.26668 0.7346,5.4498 0.21955,0.0842 0.73882,0.025 1.15392,-0.1317 0.56084,-0.21169 0.7526,-0.20582 0.74642,0.0229 -0.0109,0.40553 -0.96165,1.06965 -2.08169,1.45418 -1.08556,0.37269 -1.01681,0.37526 -2.05635,-0.0769 z m 8.61241,0.0756 c -1.82893,-0.48767 -3.41413,-2.96553 -3.40191,-5.31765 0.006,-1.16844 0.76154,-3.13718 1.52946,-3.98573 1.19196,-1.31709 4.04986,-1.7478 5.46122,-0.82304 0.68284,0.44742 0.74995,0.44977 0.9824,0.0344 0.18154,-0.32438 0.60622,-0.44581 1.55926,-0.44581 h 1.30976 v 4.33323 c 0,4.96131 0.049,5.0848 1.90908,4.80824 l 1.13363,-0.16855 -0.79375,0.67506 c -1.58949,1.35181 -3.50189,1.43144 -4.55295,0.18958 l -0.5842,-0.69025 -0.6302,0.59204 c -0.58291,0.54762 -2.07397,1.14525 -2.69757,1.08123 -0.14648,-0.015 -0.69738,-0.14229 -1.22423,-0.28276 z m 3.59606,-1.7455 c 1.43184,-2.40836 1.07048,-6.86414 -0.60845,-7.50246 -1.88591,-0.71702 -2.9533,0.70946 -2.95476,3.9488 -0.001,2.28782 0.37064,3.47509 1.25578,4.01146 0.62202,0.37693 1.97019,0.10945 2.30743,-0.4578 z m 16.81393,1.71576 c -1.12161,-0.56751 -1.32002,-1.36 -1.32423,-5.2891 l -0.004,-3.64457 -0.67868,-0.25804 c -1.01089,-0.38434 -1.31767,-0.32511 -2.21143,0.42695 l -0.81406,0.68497 v 3.94523 3.94523 h -1.4552 -1.45521 v -4.65014 -4.65015 l -0.8599,0.0861 c -1.21695,0.12183 -1.1611,-0.6224 0.0662,-0.88141 0.93227,-0.19676 2.77678,0.13997 3.35327,0.61216 0.20671,0.16931 0.66771,0.0722 1.37853,-0.29046 0.72403,-0.36937 1.575,-0.54483 2.64247,-0.54483 1.43338,0 1.63592,0.073 2.2595,0.81405 0.37674,0.44773 0.69943,0.95375 0.71709,1.12448 0.089,0.86013 0.15243,2.39944 0.19042,4.61822 0.0466,2.72408 0.25592,3.03857 1.66742,2.50578 1.67236,-0.63124 0.74703,0.69069 -0.99211,1.41735 -1.08123,0.45177 -1.63065,0.45801 -2.48013,0.0282 z m 20.01946,-0.0435 c -1.30289,-0.46467 -1.89478,-1.01614 -2.5555,-2.381 -1.33273,-2.75306 -0.2665,-6.44829 2.2361,-7.74965 1.04975,-0.54587 3.33819,-0.53196 4.13356,0.0251 0.77469,0.54262 1.032,0.5486 1.032,0.024 0,-0.32921 0.2756,-0.39483 1.38906,-0.33073 l 1.38907,0.08 0.13229,4.23333 c 0.0728,2.32833 0.22861,4.38216 0.34634,4.56406 0.26008,0.40184 1.09356,0.42834 1.78772,0.0568 0.38266,-0.2048 0.51132,-0.18811 0.50997,0.0661 -0.003,0.53381 -1.71223,1.5625 -2.85001,1.71511 -0.88258,0.11838 -1.16782,0.0193 -1.96867,-0.68386 -0.85559,-0.75122 -0.9679,-0.7845 -1.29918,-0.38504 -0.45476,0.54835 -1.8731,1.15274 -2.66924,1.13743 -0.33209,-0.006 -1.05817,-0.17366 -1.61351,-0.37172 z m 3.44413,-1.33728 c 0.79179,-0.55459 1.23616,-2.0721 1.20977,-4.13128 -0.0354,-2.76079 -1.05163,-4.17143 -2.73827,-3.80098 -1.97088,0.43288 -2.51504,5.67202 -0.78183,7.52743 0.83184,0.89048 1.45985,1.00053 2.31033,0.40483 z m 10.7589,1.41121 c -1.08941,-0.52751 -1.28713,-1.38129 -1.28618,-5.55377 7.9e-4,-3.51428 -0.0462,-3.92641 -0.44741,-3.92641 -0.24656,0 -0.52188,0.11906 -0.61182,0.26458 -0.2388,0.38639 -1.25612,0.32878 -1.12529,-0.0637 0.20478,-0.61432 1.78958,-1.31167 3.07175,-1.35164 2.08905,-0.0651 2.15458,0.0748 2.15458,4.60112 0,2.15309 0.0723,4.10304 0.1606,4.33323 0.18378,0.47892 1.43764,0.56652 1.87329,0.13087 0.20713,-0.20712 0.34044,-0.2022 0.47629,0.0176 0.21773,0.3523 -0.42048,0.92557 -1.64178,1.47471 -0.97951,0.44042 -1.81767,0.46388 -2.62403,0.0734 z m 7.26765,-0.004 c -1.04917,-0.27935 -1.95796,-1.08212 -1.69912,-1.50093 0.0998,-0.16146 0.45605,-0.11239 0.94119,0.12963 0.99664,0.49719 2.52674,0.23603 3.05759,-0.52187 0.21473,-0.30656 0.38779,-1.09643 0.3846,-1.75528 -0.006,-1.20837 -0.82584,-3.44685 -1.26262,-3.44685 -0.12978,0 -0.90742,0.84862 -1.72808,1.88584 -1.92274,2.43009 -2.21578,1.90211 -0.58281,-1.05006 1.05119,-1.90041 1.18079,-2.30584 1.03285,-3.23098 -0.3013,-1.88426 1.39029,-2.85101 2.50623,-1.43232 0.42835,0.54456 0.48169,0.82957 0.28414,1.51838 -0.22863,0.79718 -0.16575,0.91947 1.04972,2.04157 1.76881,1.63296 1.98923,2.14348 1.91066,4.42555 -0.0423,1.22781 -1.32477,2.58483 -2.79206,2.9543 -1.35409,0.34097 -1.76639,0.33871 -3.10229,-0.017 z m 11.55361,-0.0109 c -1.51487,-0.53846 -2.71325,-1.72545 -3.18945,-3.15917 -0.53482,-1.61018 -0.39628,-3.76913 0.31963,-4.98107 1.8971,-3.21152 7.80755,-3.47604 8.82442,-0.39494 0.47274,1.43246 -0.0467,2.64619 -1.53688,3.59125 -1.39301,0.88342 -3.75626,1.11813 -3.75626,0.37305 0,-0.22671 0.23809,-0.39688 0.5553,-0.39688 0.30541,0 0.90072,-0.36977 1.32292,-0.82173 0.59447,-0.63638 0.76761,-1.07204 0.76761,-1.93146 0,-1.2839 -0.35256,-1.74472 -1.33482,-1.74472 -2.6125,0 -3.22652,6.8056 -0.73047,8.09636 1.02429,0.52968 2.61697,0.27524 3.63403,-0.58055 0.8753,-0.73651 1.07709,-0.78395 1.07709,-0.25318 0,0.64811 -1.62528,1.94448 -2.81268,2.24347 -1.35863,0.34211 -2.09073,0.33268 -3.14044,-0.0404 z m -227.54168,-0.20493 c -0.24429,-0.39527 0.09561,-0.79375 0.677074,-0.79375 0.493733,0 0.513551,-0.23922 0.513551,-6.1993 v -6.19931 l -0.592609,-0.0846 c -0.325937,-0.0465 -0.632322,-0.2929 -0.68086,-0.54757 -0.07749,-0.40655 0.164177,-0.46761 1.981674,-0.50071 2.132523,-0.0388 3.245376,-0.0354 3.591274,0.0111 0.1091412,0.0146 0.1984382,0.26477 0.1984382,0.55581 0,0.38806 -0.1763902,0.52917 -0.6614592,0.52917 h -0.661458 v 6.21771 6.2177 h 1.3963362 c 1.8951812,0 2.4760395,-0.45406 2.7043432,-2.11402 0.1426792,-1.03742 0.2867448,-1.32556 0.6627442,-1.32556 0.3888899,0 0.5402289,0.35452 0.7942606,1.86059 0.4582346,2.71673 0.6101266,2.63733 -5.0453002,2.63733 -2.857587,0 -4.778894,-0.10421 -4.878009,-0.26459 z m 87.047919,-12.54148 c -2.025939,-1.05654 -2.116667,-1.14314 -2.116667,-2.02025 0,-0.83367 0.07496,-0.92368 0.830419,-0.9971 0.729625,-0.0709 1.018651,0.12974 2.38125,1.65317 2.391415,2.67367 2.103572,3.03228 -1.095002,1.36418 z m -28.707293,0.45162 c -1.080275,-0.38608 -1.420055,-2.05285 -0.574479,-2.81809 0.656895,-0.59448 1.676297,-0.5509 2.376673,0.10159 0.756222,0.70453 0.732996,1.44731 -0.07038,2.25068 -0.646734,0.64674 -0.977018,0.73558 -1.731817,0.46582 z m 149.334234,-0.7405 c -0.5911,-0.90213 -0.30771,-1.83989 0.6796,-2.24885 1.13274,-0.46919 2.12159,0.18629 2.12159,1.40635 0,1.09653 -0.4055,1.50203 -1.50202,1.50203 -0.63219,0 -0.98408,-0.17864 -1.29917,-0.65953 z"
       id="path826"
       inkscape:connector-curvature="0" />
  </g>
</svg>
