<?xml version="1.0" encoding="UTF-8"?>
<svg width="236.4mm" height="31.012mm" version="1.1" viewBox="0 0 236.4 31.012" xmlns="http://www.w3.org/2000/svg" xmlns:xlink="http://www.w3.org/1999/xlink">
	<defs>
		<linearGradient id="linearGradient834" x1="-9.0956" x2="216.41" y1="85.436" y2="82.925" gradientTransform="translate(3.2072 61.472)" gradientUnits="userSpaceOnUse">
			<stop stop-color="#314bd4" offset="0"/>
			<stop stop-color="#0986fe" offset="1"/>
		</linearGradient>
	</defs>
	<g transform="translate(10.835 -124.53)">
		<path d="m140.15 155.32c-0.25316-0.25316-0.2173-1.0775 0.0702-1.6131 1.0912-2.0334 2.9874-9.9428 3.3543-13.992 0.0977-1.0782 0.27999-2.0237 0.40507-2.101s0.22742-0.60978 0.22742-1.1833c0-0.93325 0.0688-1.0427 0.65536-1.0427 1.1079 0 1.5478 0.99993 1.22 2.7732-0.15157 0.81993-0.33982 1.5947-0.41834 1.7218-0.0785 0.12704-0.0217 0.30578 0.12614 0.39718 0.14789 0.0914 0.2689 0.0569 0.2689-0.0768 0-0.13362 0.49075-0.80047 1.0906-1.4819 3.0301-3.4424 6.4924-2.8565 6.8808 1.1644 0.0888 0.91876-0.79781 3.791-1.2495 4.048-0.20452 0.11638-0.37186 0.3287-0.37186 0.47184 0 0.2834-1.7302 2.0947-2.0009 2.0947-0.0915 0-0.49498 0.23397-0.89657 0.51992-0.84362 0.60071-2.5953 0.94272-3.5724 0.69749-0.99512-0.24976-0.81839-0.68824 0.27741-0.68824 0.52325 0 1.3269-0.20618 1.7859-0.45818 1.0046-0.55156 2.819-2.1936 2.819-2.5512 0-0.1409 0.1776-0.45244 0.39467-0.6923 0.53591-0.59217 0.9315-2.8368 0.69987-3.9712-0.1315-0.64405-0.4098-1.0322-0.91391-1.2748-1.2418-0.5975-2.7398 0.1664-4.2817 2.1833-0.29105 0.38073-0.67027 0.85161-0.84273 1.0464-0.2982 0.33684-0.72208 1.5817-1.5416 4.5274-0.20242 0.7276-0.60083 2.0968-0.88536 3.0427-0.28452 0.94589-0.66045 2.3493-0.83539 3.1186-0.61165 2.69-1.67 4.115-2.4654 3.3196zm26.067-0.25429c-0.24154-0.43162 0.0871-2.3436 0.49439-2.8766 0.11121-0.14553 0.39553-1.0385 0.63183-1.9844 0.2363-0.94588 0.53752-1.9579 0.66937-2.249 0.36016-0.79498 0.83392-3.362 0.65374-3.5421-0.0867-0.0867-0.2874 0.0795-0.44602 0.36934-0.84432 1.5428-3.1886 3.0405-4.759 3.0405-1.0985 0-2.0567-0.90157-2.0567-1.9353 0-0.97141-0.29345-0.89366-1.2853 0.34051-1.08 1.3439-3.0129 2.5008-3.8122 2.2818-0.32509-0.0891-0.88675-0.41101-1.2481-0.71533-0.56021-0.47178-0.65539-0.77368-0.64578-2.0484 8e-3 -1.0245 0.1937-1.827 0.5909-2.5495 0.3188-0.57993 0.57964-1.1354 0.57964-1.2343 0-0.20631 0.6994-1.0713 2.3352-2.888 2.1872-2.4292 5.3769-3.374 7.0218-2.0802 0.75885 0.5969 0.96421 1.9891 0.37964 2.5737-0.49095 0.49095-0.74083 0.37914-0.74083-0.33151 0-1.6905-1.0569-2.5506-2.4726-2.0124-0.99527 0.3784-3.4847 2.7717-3.8828 3.7329-0.17783 0.42931-0.41246 0.78056-0.52142 0.78056-0.10895 0-0.35019 0.56555-0.53607 1.2568-0.18589 0.69123-0.43949 1.3699-0.56356 1.5081-0.3367 0.37518-0.27225 2.1097 0.0919 2.4738 0.17462 0.17463 0.51626 0.3175 0.75919 0.3175 0.75888 0 3.0677-2.0571 4.3906-3.9119 2.0503-2.8746 2.1662-2.9709 2.9667-2.4639 0.29906 0.18943 0.25178 0.46079-0.26434 1.5173-0.3457 0.70764-0.71235 1.3497-0.81478 1.4268-0.10244 0.0771-0.26209 0.61452-0.35479 1.1942-0.13784 0.862-0.069 1.144 0.37769 1.5483 0.47327 0.42831 0.65139 0.45077 1.3336 0.1682 0.97764-0.40495 2.385-1.7538 3.4599-3.3161 0.72086-1.0477 0.86334-1.5737 1.2002-4.4306 0.21025-1.783 0.3833-3.331 0.38456-3.4402 1e-3 -0.10914 0.28538-0.19844 0.63136-0.19844 1.076 0 1.3176 0.59402 1.1323 2.7852-0.10463 1.2377-0.0694 1.9773 0.0941 1.9773 0.14366 0 0.26121-0.0974 0.26121-0.21648 0-0.35784 1.6795-2.4289 1.9748-2.4352 0.15076-3e-3 0.57176-0.23872 0.93557-0.52329 0.40891-0.31986 1.079-0.51964 1.7552-0.52328 0.94383-5e-3 1.2248 0.13923 2.0505 1.0532 0.86755 0.96028 0.95683 1.2022 0.95683 2.5929 0 0.8436-0.1 1.6469-0.22218 1.7852-0.1222 0.13825-0.38363 0.66808-0.58096 1.1774-0.39701 1.0247-1.8591 3.1485-2.1787 3.1647-0.11204 6e-3 -0.67143 0.30558-1.2431 0.66647-1.1544 0.72877-2.8034 1.0841-3.8324 0.82584-0.99994-0.25097-0.81616-0.68824 0.28926-0.68824 2.8315 0 5.916-3.5195 5.916-6.7504 0-0.93314-0.14907-1.3602-0.64943-1.8606-0.35719-0.35719-0.83103-0.64944-1.053-0.64944-0.7497 0-2.3956 0.79898-2.8708 1.3936-1.4293 1.7884-2.0414 2.684-2.0414 2.9864 0 0.18615-0.11588 0.37813-0.2575 0.42664-0.14162 0.0485-0.44346 1.0407-0.67076 2.2049-0.22729 1.1642-0.51499 2.3024-0.63933 2.5293-0.12433 0.22696-0.37142 1.1128-0.54908 1.9686s-0.42373 1.7416-0.54682 1.9686c-0.1231 0.22696-0.41886 1.127-0.65725 2.0002-0.2384 0.87312-0.55583 1.7363-0.70542 1.9182-0.3771 0.45858-0.92845 0.41325-1.2156-0.1zm-163.43-5.3969c-1.1714-0.32042-2.9711-1.0033-4.5629-1.7315-0.77324-0.35369-1.5115-0.64307-1.6406-0.64307s-0.28505-0.14882-0.34659-0.33073c-0.071345-0.21086-0.51111 0.0289-1.2134 0.66146-0.98329 0.88568-1.2535 0.99219-2.5174 0.99219-1.1434 0-1.5378-0.12249-2.0498-0.63654-1.0463-1.0506-1.2954-1.4319-1.2954-1.9831 0-1.1928 2.0929-1.6637 4.9422-1.1119 1.3142 0.25447 1.4619 0.17546 1.9276-1.0309 0.19662-0.50932 0.56602-1.4023 0.82088-1.9844 0.25487-0.58209 0.54697-1.5048 0.64912-2.0505 0.10215-0.5457 0.27205-0.99218 0.37755-0.99218 0.19752 0 1.0722-3.3183 1.0722-4.0677 0-0.23107-0.26789-0.49034-0.59531-0.57615-1.7363-0.45507-2.7191-3.7085-1.4715-4.8708 0.31848-0.29672 0.67567-0.53948 0.79375-0.53948s0.21469 0.72576 0.21469 1.6128c0 2.5025 1.5643 4.299 1.9939 2.2898 0.10112-0.47294 0.33797-1.1576 0.52631-1.5214 0.18835-0.3638 0.78862-1.5872 1.3339-2.7188 0.58426-1.2123 1.4094-2.4349 2.009-2.9766 0.89184-0.80573 1.1908-0.91927 2.4201-0.91927 1.2572 0 1.4961 0.0965 2.3057 0.93186 0.80682 0.83243 0.89994 1.0795 0.87265 2.3151-0.037195 1.6843-0.84652 3.5675-2.0396 4.7459-1.5703 1.551-1.6178 1.573-5.8913 2.736-0.16818 0.0458-0.39029 0.47822-0.49357 0.96099-0.10329 0.48278-0.27759 0.99684-0.38734 1.1424s-0.34964 0.74083-0.5331 1.3229c-0.18345 0.58208-0.42158 1.1774-0.52917 1.3229s-0.34595 0.74084-0.52968 1.3229c-0.18373 0.58208-0.72677 1.7352-1.2067 2.5625-1.0087 1.7386-0.95863 1.8353 1.2073 2.3323 0.80036 0.18363 1.5743 0.42371 1.7198 0.53351 0.50912 0.38413 4.1501 0.84213 5.3109 0.66806 0.6689-0.10031 1.1714-0.0705 1.1714 0.0695 0 0.50882-1.1806 1.7175-2.0203 2.0683-0.96285 0.40231-1.1842 0.41114-2.3453 0.0935zm-8.6799-2.763c0.66477-0.58484 0.68705-0.65414 0.21319-0.66309-0.29104-5e-3 -0.8702-0.18785-1.287-0.40523-0.41682-0.21739-1.2205-0.39525-1.7859-0.39525-1.1572 0-1.3507 0.47998-0.61621 1.5286 0.60102 0.85808 2.4664 0.82317 3.476-0.0651zm9.9298-13.504c2.462-1.673 4.2535-6.4 2.9651-7.8237-0.78592-0.86843-2.1076 0.24468-3.1656 2.666-0.22255 0.50933-0.56143 1.2237-0.75308 1.5875-0.19165 0.36381-0.5019 1.2301-0.68945 1.925s-0.44372 1.3271-0.56928 1.4047c-0.12556 0.0776-0.22829 0.31266-0.22829 0.52235 0 0.61114 1.357 0.4544 2.4406-0.28189zm67.013 15.303c-0.97032-0.2532-2.2515-1.7303-2.4212-2.7914-0.18137-1.1342-0.50358-1.2776-0.91066-0.40518-0.38935 0.83438-2.4646 2.0392-3.8363 2.2272-1.5164 0.20785-2.3716-0.34496-2.7589-1.7835l-0.29057-1.0791-1.3202 1.3412c-1.4231 1.4458-1.9831 1.6926-3.5423 1.5616-1.2668-0.1064-2.0172-1.0317-2.0758-2.5598-0.02307-0.6015-0.05994-1.0943-0.08192-1.0951-0.02199-7.9e-4 -0.73636 0.68315-1.5875 1.5199-1.5096 1.4841-3.3457 2.5241-5.0259 2.8467-1.5862 0.30453-3.8809-1.0876-4.2019-2.5492-0.09187-0.41829-0.22478-0.76052-0.29535-0.76052s-0.71501 0.50601-1.4321 1.1245c-1.9452 1.6777-3.524 1.9752-4.6273 0.87192-0.70967-0.70967-0.86557-2.1723-0.40332-3.7841 0.13536-0.47198 0.21109-0.85815 0.16828-0.85815s-0.42146 0.49873-0.84143 1.1083c-0.86676 1.258-1.6396 2.0856-3.1037 3.3234-0.80771 0.68287-1.2545 0.85999-2.1693 0.85999-0.99558 0-1.2438-0.12023-1.8271-0.88487-0.6878-0.90176-0.97816-3.0839-0.41034-3.0839 0.14552 0 0.26458-0.16872 0.26458-0.37494 0-1.5882 3.8965-6.4214 5.7039-7.075 0.5009-0.18112 0.91073-0.42446 0.91073-0.54075 0-0.33536 1.977-0.2453 2.3283 0.10607 0.50067 0.50066 0.38048 0.97234-0.20852 0.81832-0.28931-0.0757-0.94758-0.0585-1.4628 0.0382-1.2587 0.23614-3.6335 2.6463-4.2638 4.3273-0.25686 0.68504-0.58 1.3229-0.71807 1.4176-0.13807 0.0946-0.26325 0.92805-0.27817 1.8521l-0.02713 1.6801 0.95551 0.0799c1.1414 0.0955 2.1503-0.6528 3.6447-2.7032 1.1024-1.5126 3.345-5.955 3.6177-7.1663 0.18936-0.84111 0.89408-2.5343 1.7287-4.1535 0.2774-0.53815 0.50438-1.1139 0.50438-1.2794 0-0.30596 1.5519-3.6088 1.9228-4.0921 0.11166-0.14553 0.47269-0.68131 0.8023-1.1906 0.77137-1.192 2.0374-1.4628 2.0374-0.43589 0 0.36167-0.17567 0.99466-0.39038 1.4066-0.82816 1.589-4.1075 8.5178-4.1075 8.6785 0 0.0931-0.2259 0.66881-0.50201 1.2793s-0.65726 1.6457-0.84702 2.3006c-0.18975 0.65484-0.42015 1.2502-0.51199 1.3229-0.58608 0.46431-1.0349 5.8996-0.51378 6.2217 1.0142 0.62683 4.0105-1.7896 4.5075-3.6353 0.89607-3.3277 4.9654-7.0844 7.674-7.0844 0.86265 0 1.0344 0.11267 1.4243 0.93435 0.40776 0.8593 0.41013 1.0487 0.02941 2.3584-0.28855 0.99257-0.67426 1.6325-1.2731 2.1123-0.47254 0.37859-0.9894 0.79295-1.1486 0.92079-0.55228 0.44355-1.9354 1.0825-2.3433 1.0825-0.22551 0-0.41001 0.10555-0.41001 0.23454 0 0.129-0.5502 0.31705-1.2227 0.41789l-1.2227 0.18335 0.13517 1.1992c0.18684 1.6576 0.85068 2.2608 2.4803 2.2538 1.8034-8e-3 3.2794-0.70964 4.6292-2.2013 1.5533-1.7164 2.0159-2.4932 2.346-3.9396 0.1827-0.80037 0.42014-1.5743 0.52764-1.7198 0.1075-0.14553 0.34555-0.74084 0.529-1.3229 0.18345-0.58208 0.42158-1.1774 0.52917-1.3229s0.33012-0.6813 0.49451-1.1906c0.38731-1.2 2.6643-5.6572 3.567-6.9822 0.38557-0.56601 0.70103-1.1264 0.70103-1.2453s0.47477-0.72735 1.055-1.3521c0.58027-0.62479 1.0565-1.2253 1.0583-1.3344 0.0019-0.10914 0.29637-0.19843 0.65456-0.19843 0.53936 0 0.7065 0.1932 0.97278 1.1245 0.17684 0.61846 0.28612 1.2435 0.24286 1.3891-0.04326 0.14552-0.25261 1.0087-0.46521 1.9182-0.2126 0.9095-0.49589 1.6536-0.62953 1.6536s-0.24298 0.19107-0.24298 0.4246c0 0.66758-1.5976 3.739-2.4474 4.705-0.25466 0.28951-0.46302 0.63393-0.46302 0.76538 0 0.35078-1.0215 1.6494-2.4043 3.0565-1.6659 1.6952-2.0937 2.6772-2.0937 4.8065 0 1.3791 0.10694 1.8672 0.48385 2.2083 0.52926 0.47897 1.6328 0.5961 1.6328 0.1733 0-0.14552 0.16993-0.26459 0.37761-0.26459 0.41586 0 2.0036-1.7974 2.0036-2.2682 0-0.16257 0.23812-0.51108 0.52917-0.77447 0.29104-0.26339 0.52917-0.64666 0.52917-0.85171 0-0.20506 0.29766-1.0236 0.66146-1.8189 0.3638-0.79536 0.66146-1.5643 0.66146-1.7088s0.49659-0.80139 1.1035-1.4598c1.2146-1.3177 2.1388-1.4973 2.2883-0.44463 0.0465 0.32742-0.03356 0.59531-0.17792 0.59531-0.14436 0-0.39596 0.4045-0.55912 0.89889-0.16316 0.49438-0.52958 1.1674-0.81427 1.4957-0.28469 0.32824-0.51761 0.75719-0.51761 0.9532s-0.11906 0.35639-0.26458 0.35639c-0.14552 0-0.24536 0.0893-0.22186 0.19844 0.0235 0.10914-0.10086 0.54753-0.27635 0.97421-0.17549 0.42668-0.28402 1.4387-0.24116 2.249l0.07791 1.4732 1.2474 0.0803c1.1384 0.0733 1.3481-0.0126 2.4007-0.98284 0.63433-0.5847 1.3691-1.5138 1.6327-2.0646 0.26368-0.55085 0.72915-1.5373 1.0344-2.1922 0.59127-1.2685 2.979-3.9688 3.5094-3.9688 0.17474 0 0.36244-0.13416 0.4171-0.29814 0.05466-0.16398 0.71054-0.35687 1.4575-0.42864 1.199-0.11521 1.438-0.0507 2.0393 0.55069 0.92302 0.92302 0.9392 2.4954 0.03639 3.5348-0.6077 0.69963-0.67111 0.71647-1.1018 0.29262-0.35855-0.3529-0.38977-0.53068-0.145-0.82561 0.17157-0.20673 0.33993-0.83319 0.37415-1.3921 0.04906-0.80152-0.04006-1.0374-0.42174-1.116-1.4531-0.29961-3.5025 1.9027-4.5607 4.901-0.82963 2.3508-0.82835 3.5011 0.0049 4.4002 0.71581 0.77238 1.3958 0.85911 3.1911 0.40703 1.4045-0.35366 3.9825-2.6352 4.2514-3.7626 0.25902-1.086 1.315-3.1894 1.8055-3.5965 0.23204-0.19258 0.42189-0.49189 0.42189-0.66512 0-0.55508 2.4477-2.5068 3.8988-3.1089 2.1775-0.9034 3.5817-0.2897 3.5817 1.5654 0 2.2733-2.1786 4.4272-5.6748 5.6106-2.0844 0.70551-2.207 0.78985-2.2855 1.5718-0.04608 0.45926 0.04206 0.82627 0.19844 0.82627 0.15474 0 0.28135 0.22355 0.28135 0.49677 0 1.0255 1.5002 1.4727 3.5119 1.047 1.0132-0.21445 1.5959-0.58968 2.9467-1.8977 0.92606-0.89671 1.8895-1.9578 2.1409-2.358 0.71092-1.1315 1.0314-0.85581 0.371 0.31917-0.69523 1.237-3.0923 3.7157-3.5934 3.7157-0.19254 0-0.35052 0.0893-0.35106 0.19844-0.0019 0.34719-2.4765 1.2387-3.4386 1.2387-1.4421 0-2.9029-0.87806-3.566-2.1434l-0.57808-1.1031-1.1691 1.1326c-1.8667 1.8084-4.3068 2.776-5.9316 2.352zm-24.447-6.2157c0.49466-0.16893 0.99459-0.46659 1.111-0.66145 0.11637-0.19487 0.35773-0.3543 0.53635-0.3543 0.97652 0 3.1936-2.9649 3.0373-4.0617-0.30212-2.1195-4.3018 0.92644-5.594 4.2602-0.47505 1.2256-0.42296 1.2724 0.90942 0.81731zm37.147-0.9118c2.4799-1.7209 3.0427-2.483 3.0427-4.1198 0-0.78811-0.03226-0.81068-0.94675-0.66228-0.65222 0.10584-1.3497 0.54874-2.2422 1.4237-0.71248 0.69852-1.2985 1.3657-1.3022 1.4825-0.0037 0.11686-0.30445 0.65051-0.66825 1.1859-0.3638 0.53538-0.66146 1.1968-0.66146 1.4698 0 0.69989 1.0844 0.39545 2.7781-0.7799zm-24.871-4.1872c0.43656-0.54044 0.84223-1.1227 0.90149-1.2939 0.05925-0.17122 0.40955-0.78756 0.77844-1.3696 1.1308-1.7844 1.7835-3.1183 2.1684-4.4318 0.20255-0.69122 0.46134-1.2568 0.5751-1.2568 0.11375 0 0.20682-0.41671 0.20682-0.92604 0-1.2152-0.49004-1.1895-1.2971 0.068-0.34959 0.5447-0.83176 1.288-1.0715 1.6518-0.99763 1.514-3.5849 7.1282-4.1457 8.9958l-0.35752 1.1906 0.72392-0.82273c0.39816-0.4525 1.0811-1.2649 1.5177-1.8054zm-47.438 11.049c-1.4223-0.29495-3.2556-3.2129-2.7002-4.2977 0.11785-0.23019 0.35118-0.93098 0.51853-1.5573 0.83318-3.1184 4.8593-6.931 7.3192-6.931 1.676 0 2.423 1.6178 1.6717 3.6208-0.29963 0.79884-2.771 3.2584-3.274 3.2584-0.16692 0-0.7441 0.22464-1.2826 0.49919-0.53852 0.27455-1.3971 0.5776-1.908 0.67344-0.89034 0.16703-0.92891 0.22129-0.92891 1.3068 0 3.4536 5.1003 2.996 7.7106-0.69172 1.3293-1.878 1.7199-2.3231 1.8897-2.1534 0.2074 0.2074-0.37717 1.5035-0.79734 1.7679-0.18496 0.11638-0.3363 0.31557-0.3363 0.44267 0 0.54419-2.6286 2.7577-4.1788 3.519-0.96374 0.47327-2.7657 0.73745-3.7035 0.54297zm0.96374-5.9328c0.45828-0.15976 0.83323-0.38497 0.83323-0.50048s0.30062-0.28547 0.66806-0.37769c0.92856-0.23305 2.6988-2.0175 2.9276-2.9512 0.10448-0.42625 0.31281-0.85523 0.46294-0.95328 0.36797-0.24031-0.28119-1.0127-0.84987-1.0112-1.2547 3e-3 -3.6696 2.4042-4.7055 4.6782-0.25285 0.55505-0.50569 1.0985-0.56187 1.2076-0.14265 0.27712 0.25133 0.24753 1.2254-0.092zm102.2 5.5113c-1.0095-0.52488-1.8391-1.5272-2.2268-2.6904-0.0494-0.14819-0.59934 0.1667-1.2221 0.69976-2.1932 1.8773-3.7386 2.2447-4.7798 1.1364-0.49355-0.52537-0.61423-0.93316-0.59007-1.994 0.0167-0.73345 0.10366-1.5971 0.19323-1.9192 0.11997-0.43148-0.0677-0.31273-0.71282 0.45099-1.626 1.9249-3.4049 3.6126-4.0777 3.8684-3.052 1.1604-4.5776-1.4906-2.9303-5.0919 0.75601-1.6528 2.8202-4.3247 3.9896-5.1642 2.0605-1.4791 3.8557-1.9055 4.783-1.1359 0.6663 0.55297 0.45945 0.75564-0.62304 0.61045-1.1126-0.14923-2.8383 0.65859-3.925 1.8373-0.75464 0.81855-2.4578 4.2347-2.4578 4.9298 0 0.31046-0.11907 0.56447-0.26459 0.56447-0.39248 0-0.3047 1.1154 0.13332 1.6941 0.24738 0.32686 0.68432 0.49488 1.2454 0.47892 0.70061-0.0199 1.1406-0.32216 2.3225-1.5953 0.80197-0.86389 1.5772-1.7342 1.7227-1.9341 0.46392-0.63721 2.1663-4.2676 2.9-6.1842 0.38992-1.0186 0.87921-2.2273 1.0873-2.6858 0.2081-0.45856 0.37836-0.92332 0.37836-1.0328 0-0.21446 0.83312-2.0522 2.2739-5.0158 0.96226-1.9794 2.0112-3.3042 2.616-3.3042 1.0515 0 0.76256 1.0807-1.6269 6.0854-0.93795 1.9645-1.8617 3.8695-2.0527 4.2333s-0.55726 1.3163-0.81383 2.1167c-0.25656 0.80037-0.56601 1.5819-0.68766 1.7368-0.20888 0.26592-0.91981 2.9068-1.1706 4.3486-0.40614 2.3345-0.40846 2.5357-0.0351 3.0385 0.35896 0.48345 0.47025 0.4967 1.4064 0.16747 1.3707-0.48206 2.3851-1.4787 3.1545-3.0992 0.3521-0.74164 0.64019-1.4496 0.64019-1.5733 0-0.39774 1.4236-2.3064 2.5136-3.37 0.58208-0.56802 1.6249-1.36 2.3173-1.76 1.0784-0.62291 1.4334-0.70077 2.4746-0.54276 1.3852 0.21023 1.6845 0.53994 1.677 1.8476-7e-3 1.1541-0.37493 1.8268-1.8118 3.3095-0.96583 0.9966-2.9382 2.0548-4.3925 2.3565-1.2715 0.26383-1.4552 0.46195-1.4552 1.569 0 0.61266 0.17432 1.3628 0.38738 1.667 1.3911 1.9861 6.7703-0.22549 7.8568-3.2303 0.19413-0.53687 0.66051-1.0618 1.203-1.3539 0.79452-0.42788 2.4591-2.1855 2.4591-2.5965 0-0.089 0.29766-0.59988 0.66146-1.1353 0.38571-0.56762 0.66146-1.3493 0.66146-1.875 0-0.54838 0.1814-1.0393 0.46302-1.2531 0.88176-0.66935 1.1245-0.44269 1.1245 1.0501 0 0.78012 0.29104 2.3354 0.64676 3.4562 0.86526 2.7262 0.99588 5.8064 0.29091 6.8603-0.83386 1.2465-2.3228 2.0234-3.8776 2.0234-1.2565 0-1.4533-0.0903-2.5188-1.1558-0.64172-0.64172-1.1558-1.4067-1.1558-1.7198 0-0.31019-0.0703-0.56398-0.15624-0.56398-0.0859 0-0.79406 0.54491-1.5736 1.2109-1.284 1.097-2.5039 1.6413-4.7524 2.1206-0.29104 0.062-1.0525-0.15931-1.6922-0.49189zm13.298-1.0067c0.38342-0.30161 0.69714-0.64587 0.69714-0.76502 0-0.11916-0.4846-0.41055-1.0769-0.64754-0.59228-0.23699-1.5037-0.84539-2.0253-1.352-0.92683-0.90012-0.95696-0.90901-1.3208-0.38959-0.76484 1.092 0.94373 3.7025 2.4232 3.7025 0.33301 0 0.91919-0.24677 1.3026-0.54837zm0.96172-3.2325c0-1.5023-0.5979-4.5792-0.9598-4.9393-0.0793-0.0788-0.36917 0.1543-0.64429 0.5181-0.27511 0.36381-0.67962 0.89959-0.8989 1.1906s-0.65021 0.86013-0.95762 1.2646l-0.55893 0.73548 0.70105 0.91914c0.66912 0.87725 2.2844 1.939 2.9878 1.9638 0.23077 8e-3 0.33073-0.4913 0.33073-1.6525zm-11.836-1.7427c1.9384-1.0196 3.2595-2.328 3.5927-3.5582 0.44402-1.6391 0.0597-2.0619-1.3775-1.5155-1.026 0.39008-1.7028 1.063-2.9412 2.9243-2.0176 3.0326-1.857 3.5081 0.72595 2.1494zm88.704 6.1121c-1.2977-0.43084-1.8457-0.91129-2.2774-1.9967-0.18394-0.46242-0.35605-0.87302-0.38249-0.91244-0.0264-0.0394-0.57143 0.42129-1.2111 1.0238-1.3114 1.2352-1.9952 1.5614-3.2734 1.5614-1.1606 0-2.2553-1.2299-2.2553-2.5338 0-1.1514-0.235-1.1398-1.0465 0.0516-0.3573 0.52455-0.95261 1.1461-1.3229 1.3811-0.37031 0.23509-0.74246 0.52369-0.827 0.64135-0.22251 0.3097-1.9625 0.55045-2.6789 0.37065-0.76828-0.19283-1.533-1.4556-1.533-2.5314 0-0.45049-0.0757-0.81907-0.1681-0.81907-0.18368 0-1.3077 1.1605-1.4582 1.5055-0.0514 0.11786-0.62926 0.56329-1.2841 0.98984-2.4735 1.6112-5.0271 0.79887-5.0271-1.5991 0-1.0283 1.1932-5.3446 1.5644-5.6588 0.0859-0.0728 0.33467-0.47953 0.55272-0.90392 0.56446-1.0986 1.8041-2.2711 2.4012-2.2711 0.79298 0 0.63031 0.98844-0.4572 2.7781-1.9518 3.212-2.7315 6.2622-1.831 7.1626 0.52498 0.52498 1.8358 0.47206 2.7978-0.11295 1.5554-0.94592 3.4316-4.0067 3.4374-5.6077 7.9e-4 -0.22556 0.1059-0.52321 0.23354-0.66146 0.12763-0.13824 0.44104-0.90619 0.69646-1.7066 0.25543-0.80036 0.54627-1.5743 0.64633-1.7198 0.10005-0.14552 0.34148-0.7706 0.5365-1.3891 0.19503-0.61847 0.4546-1.1245 0.57683-1.1245s0.22223-0.12461 0.22223-0.2769c0-0.3765 1.8986-4.2356 2.3327-4.7413 0.19156-0.22319 0.66781-0.89745 1.0583-1.4984 1.1613-1.787 2.4166-3.0702 2.8432-2.9064 0.6426 0.24659 0.9692 1.5138 0.79201 3.073-0.091 0.80036-0.28033 1.4949-0.42081 1.5434-0.14048 0.0485-0.25543 0.26878-0.25543 0.4895 0 0.67005-2.0614 4.7882-3.3332 6.6588-0.65788 0.96764-1.9221 2.5754-2.8094 3.5729l-1.6133 1.8136-0.12519 1.9507c-0.20259 3.1568 0.89407 4.1172 2.9211 2.5581 0.98776-0.75971 2.8434-3.6264 2.8434-4.3926 0-0.24378 0.11271-0.64998 0.25046-0.90267 0.13776-0.25269 0.44392-1.1143 0.68035-1.9146 0.5362-1.8151 0.53163-1.8043 2.4839-5.8775 0.88679-1.8502 1.6123-3.4873 1.6123-3.638 0-0.15075 0.11664-0.27409 0.25921-0.27409 0.14256 0 0.51079-0.49316 0.81829-1.0959 0.64923-1.2726 2.8064-3.6666 3.3038-3.6666 0.18708 0 0.48063 0.42564 0.65232 0.94588 0.49998 1.515 0.0837 3.3323-1.6318 7.1239-0.13168 0.29104-0.52606 1.0054-0.8764 1.5875s-0.84139 1.4139-1.0912 1.8485c-0.68113 1.1849-3.2534 4.301-3.9982 4.8436-0.5761 0.41966-0.67126 0.7326-0.80176 2.6365-0.11973 1.7469-0.0638 2.2889 0.29201 2.832 0.58875 0.89855 1.4453 0.85662 2.6888-0.13162 1.1638-0.92488 1.8935-2.026 2.3527-3.5501 0.74364-2.4685 3.8187-5.9331 5.7997-6.5344 1.0688-0.3244 2.5077-0.2306 2.9293 0.19096 0.58008 0.58009 0.52772 2.4401-0.0976 3.4656-0.71825 1.1779-3.1003 2.8935-4.5138 3.2508-0.65485 0.16553-1.5322 0.43478-1.9497 0.59832-0.72944 0.28574-0.75296 0.34927-0.60184 1.6253 0.0865 0.73037 0.34187 1.5125 0.56747 1.7381 0.56003 0.56003 3.1662 0.50893 4.3111-0.0845 1.1166-0.57879 3.4939-2.8992 3.4939-3.4103 0-0.21504 0.6496-0.94595 1.4436-1.6242 1.6545-1.4135 3.0067-3.2837 3.2437-4.4862 0.28872-1.4651 0.85603-2.5469 1.3356-2.5468 0.38909 7e-5 0.4622 0.27363 0.47725 1.7859 0.0103 1.0256 0.19616 2.1801 0.43672 2.7119 0.57026 1.2605 0.71737 1.9095 0.97788 4.3134l0.2237 2.0644-0.96033 1.0711c-0.52819 0.58909-1.2818 1.2377-1.6748 1.4413-0.78756 0.40809-3.122 0.50852-3.122 0.13432 0-0.12975-0.28542-0.30754-0.63427-0.39509-0.63374-0.15906-1.747-1.7055-1.747-2.4268 0-0.63025-0.60723-0.41944-1.5654 0.54344-1.688 1.6963-4.5018 2.6193-6.2329 2.0446zm13.393-1.6098c0.17391-0.47013 0.0367-0.62535-0.93094-1.0534-0.6242-0.27611-1.5162-0.87475-1.9822-1.3303s-0.96229-0.8283-1.1028-0.8283c-0.35204 0-0.32212 2.2101 0.0407 3.0064 0.42425 0.93113 1.9836 1.4916 2.9943 1.0763 0.42733-0.17562 0.86876-0.56742 0.98094-0.87067zm0.49107-2.1429c0-1.6804-0.56103-4.9803-0.93322-5.4893-0.31424-0.42973-0.38195-0.3946-0.82896 0.43005-0.26773 0.49391-0.6726 1.095-0.89972 1.3357-0.86406 0.91576-1.2436 1.6485-1.1129 2.1485 0.20126 0.76961 2.4273 2.6226 3.1506 2.6226 0.55078 0 0.62421-0.12322 0.62421-1.0475zm-13.229-1.5773c0-0.13396 0.34484-0.3193 0.76631-0.41187 0.42148-0.0926 0.97571-0.39969 1.2316-0.68248 0.25592-0.2828 0.59607-0.51417 0.75589-0.51417 0.80418 0 2.5378-2.6356 2.5378-3.8582 0-0.67593-0.0504-0.70267-1.0672-0.56629-0.82064 0.11007-1.3655 0.43905-2.3582 1.4239-1.5602 1.5478-3.1091 4.3076-2.5992 4.6312 0.44804 0.28437 0.73294 0.27575 0.73294-0.0222zm-13.758-3.4808c0-0.0866 0.40893-0.68307 0.90874-1.3254 1.2651-1.6259 3.7706-6.1149 4.1631-7.4589 0.17948-0.61454 0.40425-1.1769 0.49949-1.2496 0.0952-0.0728 0.25525-0.57878 0.3556-1.1245 0.1444-0.7853 0.1-0.99219-0.21296-0.99219-0.42487 0-1.7452 1.5702-1.7452 2.0755 0 0.16816-0.10088 0.30575-0.22418 0.30575-0.28467 0-2.1571 3.5536-2.1571 4.0939 0 0.22223-0.0926 0.40406-0.20571 0.40406-0.27697 0-1.5936 3.0578-2.0316 4.7185-0.33979 1.2881-0.33441 1.3251 0.14865 1.0234 0.27566-0.17215 0.50121-0.38389 0.50121-0.47052zm8.5463-1.6475c1.7264-2.4394 4.5324-8.0025 4.7972-9.5109 0.29145-1.6601-0.73834-1.1746-2.1047 0.99219-0.93753 1.4867-3.5659 6.849-3.5659 7.2749 0 0.23344-0.12517 0.5496-0.27815 0.70258-0.43401 0.43401-1.0514 2.991-0.68495 2.8368 0.1659-0.0698 0.99233-1.1028 1.8365-2.2956zm-69.93 7.9957c0-0.13342 0.12938-0.24258 0.2875-0.24258 0.15813 0 0.93921-0.66751 1.7357-1.4834 0.79652-0.81586 1.4908-1.4408 1.5428-1.3888s-0.22306 0.56142-0.61125 1.132c-0.66279 0.97425-2.9548 2.5122-2.9548 1.9827zm91.546-0.46245c0-0.12093 0.26789-0.366 0.59531-0.54459s0.88715-0.79402 1.2438-1.3676c0.35669-0.57361 0.74639-1.0429 0.86601-1.0429 0.29943 0-0.51686 1.2754-1.4818 2.3151-0.78396 0.84478-1.2234 1.0747-1.2234 0.64003zm-170.36-12.049c-0.37896-0.45662 0.39718-1.898 1.751-3.2518 0.92235-0.92235 1.0818-0.9875 1.7706-0.72321 0.70958 0.27229 0.47485 0.70061-1.4012 2.5569-1.4959 1.48-1.8644 1.7265-2.1203 1.4182zm13.873 7e-3c-0.56572-0.41366-0.38514-1.761 0.23602-1.761 0.20338 0 0.40947-0.11026 0.45798-0.24502 0.13282-0.36899 1.3603-0.58712 1.7767-0.31575 0.25465 0.16594 0.31422 0.5122 0.19627 1.1409-0.13403 0.71445-0.35208 0.96873-1.0459 1.2196-1.0819 0.39122-1.0315 0.39242-1.6211-0.0388zm119.78-0.0708c-0.5005-0.22216-0.39821-0.74276 0.26458-1.3464 0.86408-0.78702 1.6878-1.1586 2.1636-0.97597 0.44519 0.17084 0.55716 1.3229 0.18554 1.909-0.23604 0.37229-2.0574 0.66035-2.6138 0.41337z" fill="url(#linearGradient834)" stroke-width=".26458"/>
	</g>
</svg>
