<?xml version="1.0" encoding="UTF-8" standalone="no"?>
<!-- Created with Inkscape (http://www.inkscape.org/) -->

<svg
   xmlns:dc="http://purl.org/dc/elements/1.1/"
   xmlns:cc="http://creativecommons.org/ns#"
   xmlns:rdf="http://www.w3.org/1999/02/22-rdf-syntax-ns#"
   xmlns:svg="http://www.w3.org/2000/svg"
   xmlns="http://www.w3.org/2000/svg"
   xmlns:xlink="http://www.w3.org/1999/xlink"
   xmlns:sodipodi="http://sodipodi.sourceforge.net/DTD/sodipodi-0.dtd"
   xmlns:inkscape="http://www.inkscape.org/namespaces/inkscape"
   width="236.39503mm"
   height="31.012018mm"
   viewBox="0 0 236.39503 31.012018"
   version="1.1"
   id="svg8"
   inkscape:version="0.92.5 (2060ec1f9f, 2020-04-08)"
   sodipodi:docname="Le delice des papilles.svg">
  <defs
     id="defs2">
    <linearGradient
       inkscape:collect="always"
       id="linearGradient832">
      <stop
         style="stop-color:#314bd4;stop-opacity:1"
         offset="0"
         id="stop828" />
      <stop
         style="stop-color:#0986fe;stop-opacity:1"
         offset="1"
         id="stop830" />
    </linearGradient>
    <linearGradient
       inkscape:collect="always"
       xlink:href="#linearGradient832"
       id="linearGradient834"
       x1="-9.0956335"
       y1="85.43615"
       x2="216.41026"
       y2="82.925102"
       gradientUnits="userSpaceOnUse"
       gradientTransform="translate(3.2072343,61.471991)" />
  </defs>
  <sodipodi:namedview
     id="base"
     pagecolor="#ffffff"
     bordercolor="#666666"
     borderopacity="1.0"
     inkscape:pageopacity="0.0"
     inkscape:pageshadow="2"
     inkscape:zoom="0.49497475"
     inkscape:cx="-23.336109"
     inkscape:cy="25.35524"
     inkscape:document-units="mm"
     inkscape:current-layer="layer1"
     showgrid="false"
     fit-margin-top="0"
     fit-margin-left="0"
     fit-margin-right="0"
     fit-margin-bottom="0"
     inkscape:window-width="1920"
     inkscape:window-height="1017"
     inkscape:window-x="1912"
     inkscape:window-y="-8"
     inkscape:window-maximized="1" />
  <metadata
     id="metadata5">
    <rdf:RDF>
      <cc:Work
         rdf:about="">
        <dc:format>image/svg+xml</dc:format>
        <dc:type
           rdf:resource="http://purl.org/dc/dcmitype/StillImage" />
        <dc:title></dc:title>
      </cc:Work>
    </rdf:RDF>
  </metadata>
  <g
     inkscape:label="Calque 1"
     inkscape:groupmode="layer"
     id="layer1"
     transform="translate(10.834583,-124.52989)">
    <path
       style="fill:url(#linearGradient834);fill-opacity:1;stroke-width:0.26458335"
       d="m 140.1543,155.32239 c -0.25316,-0.25316 -0.2173,-1.07747 0.0702,-1.61314 1.09123,-2.0334 2.98737,-9.94282 3.35428,-13.99184 0.0977,-1.07823 0.27999,-2.02367 0.40507,-2.10097 0.12508,-0.0773 0.22742,-0.60978 0.22742,-1.18328 0,-0.93325 0.0688,-1.04272 0.65536,-1.04272 1.10793,0 1.54784,0.99993 1.22003,2.77318 -0.15157,0.81993 -0.33982,1.59472 -0.41834,1.72177 -0.0785,0.12704 -0.0217,0.30578 0.12614,0.39718 0.14789,0.0914 0.2689,0.0569 0.2689,-0.0768 0,-0.13362 0.49075,-0.80047 1.09055,-1.48189 3.03013,-3.4424 6.49235,-2.85649 6.8808,1.16444 0.0888,0.91876 -0.79781,3.79105 -1.24949,4.04804 -0.20452,0.11638 -0.37186,0.3287 -0.37186,0.47184 0,0.2834 -1.73015,2.0947 -2.00086,2.0947 -0.0915,0 -0.49498,0.23397 -0.89657,0.51992 -0.84362,0.60071 -2.5953,0.94272 -3.57237,0.69749 -0.99512,-0.24976 -0.81839,-0.68824 0.27741,-0.68824 0.52325,0 1.32693,-0.20618 1.78594,-0.45818 1.00465,-0.55156 2.81895,-2.19356 2.81895,-2.55125 0,-0.1409 0.1776,-0.45244 0.39467,-0.6923 0.53591,-0.59217 0.9315,-2.83682 0.69987,-3.97119 -0.1315,-0.64405 -0.4098,-1.03224 -0.91391,-1.27481 -1.24177,-0.5975 -2.73984,0.1664 -4.28167,2.18334 -0.29105,0.38073 -0.67027,0.85161 -0.84273,1.0464 -0.2982,0.33684 -0.72208,1.58171 -1.54156,4.52737 -0.20242,0.7276 -0.60083,2.09682 -0.88536,3.0427 -0.28452,0.94589 -0.66045,2.34927 -0.83539,3.11864 -0.61165,2.69003 -1.66999,4.11501 -2.46545,3.31956 z m 26.06722,-0.25429 c -0.24154,-0.43162 0.0871,-2.34358 0.49439,-2.87661 0.11121,-0.14553 0.39553,-1.03849 0.63183,-1.98438 0.2363,-0.94588 0.53752,-1.95792 0.66937,-2.24896 0.36016,-0.79498 0.83392,-3.36195 0.65374,-3.54213 -0.0867,-0.0867 -0.2874,0.0795 -0.44602,0.36934 -0.84432,1.54277 -3.18858,3.0405 -4.75901,3.0405 -1.09854,0 -2.05666,-0.90157 -2.05666,-1.93528 0,-0.97141 -0.29345,-0.89366 -1.28526,0.34051 -1.07998,1.34389 -3.01292,2.50083 -3.8122,2.28175 -0.32509,-0.0891 -0.88675,-0.41101 -1.24813,-0.71533 -0.56021,-0.47178 -0.65539,-0.77368 -0.64578,-2.04842 0.008,-1.02453 0.1937,-1.82698 0.5909,-2.54952 0.3188,-0.57993 0.57964,-1.13536 0.57964,-1.23429 0,-0.20631 0.6994,-1.07127 2.3352,-2.88798 2.18725,-2.42915 5.37689,-3.37405 7.02182,-2.08015 0.75885,0.5969 0.96421,1.98914 0.37964,2.57371 -0.49095,0.49095 -0.74083,0.37914 -0.74083,-0.33151 0,-1.69047 -1.05689,-2.55064 -2.47263,-2.01238 -0.99527,0.3784 -3.48468,2.7717 -3.88283,3.73291 -0.17783,0.42931 -0.41246,0.78056 -0.52142,0.78056 -0.10895,0 -0.35019,0.56555 -0.53607,1.25677 -0.18589,0.69123 -0.43949,1.36988 -0.56356,1.50813 -0.3367,0.37518 -0.27225,2.10967 0.0919,2.47385 0.17462,0.17463 0.51626,0.3175 0.75919,0.3175 0.75888,0 3.06771,-2.05709 4.39062,-3.9119 2.05028,-2.87463 2.16621,-2.97091 2.96668,-2.46389 0.29906,0.18943 0.25178,0.46079 -0.26434,1.5173 -0.3457,0.70764 -0.71235,1.34972 -0.81478,1.42684 -0.10244,0.0771 -0.26209,0.61452 -0.35479,1.19421 -0.13784,0.862 -0.069,1.14404 0.37769,1.54832 0.47327,0.42831 0.65139,0.45077 1.33359,0.1682 0.97764,-0.40495 2.385,-1.75384 3.45989,-3.31614 0.72086,-1.04773 0.86334,-1.5737 1.20022,-4.43059 0.21025,-1.78295 0.3833,-3.33102 0.38456,-3.44016 0.001,-0.10914 0.28538,-0.19844 0.63136,-0.19844 1.07605,0 1.31756,0.59402 1.13234,2.78516 -0.10463,1.23768 -0.0694,1.97734 0.0941,1.97734 0.14366,0 0.26121,-0.0974 0.26121,-0.21648 0,-0.35784 1.67952,-2.42889 1.97485,-2.43523 0.15076,-0.003 0.57176,-0.23872 0.93557,-0.52329 0.40891,-0.31986 1.07902,-0.51964 1.75515,-0.52328 0.94383,-0.005 1.22479,0.13923 2.05052,1.05321 0.86755,0.96028 0.95683,1.20221 0.95683,2.59292 0,0.8436 -0.1,1.64693 -0.22218,1.78517 -0.1222,0.13825 -0.38363,0.66808 -0.58096,1.1774 -0.39701,1.02471 -1.8591,3.14849 -2.17868,3.16468 -0.11204,0.006 -0.67143,0.30558 -1.2431,0.66647 -1.15445,0.72877 -2.80339,1.0841 -3.83239,0.82584 -0.99994,-0.25097 -0.81616,-0.68824 0.28926,-0.68824 2.83151,0 5.91596,-3.51951 5.91596,-6.7504 0,-0.93314 -0.14907,-1.36023 -0.64943,-1.86058 -0.35719,-0.35719 -0.83103,-0.64944 -1.05298,-0.64944 -0.7497,0 -2.39555,0.79898 -2.87076,1.3936 -1.42927,1.78845 -2.04141,2.68395 -2.04141,2.98636 0,0.18615 -0.11588,0.37813 -0.2575,0.42664 -0.14162,0.0485 -0.44346,1.0407 -0.67076,2.20486 -0.22729,1.16417 -0.51499,2.30236 -0.63933,2.52932 -0.12433,0.22696 -0.37142,1.11283 -0.54908,1.9686 -0.17766,0.85577 -0.42373,1.74164 -0.54682,1.9686 -0.1231,0.22696 -0.41886,1.12702 -0.65725,2.00015 -0.2384,0.87312 -0.55583,1.73633 -0.70542,1.91823 -0.3771,0.45858 -0.92845,0.41325 -1.21565,-0.1 z M 2.7914589,149.67123 c -1.1713978,-0.32042 -2.97105397,-1.00334 -4.5629196,-1.73147 -0.7732369,-0.35369 -1.5114985,-0.64307 -1.6405808,-0.64307 -0.1290823,0 -0.2850462,-0.14882 -0.3465883,-0.33073 -0.071345,-0.21086 -0.5111089,0.0289 -1.2134374,0.66146 -0.9832947,0.88568 -1.2535217,0.99219 -2.5173515,0.99219 -1.143355,0 -1.537806,-0.12249 -2.049759,-0.63654 -1.0463083,-1.05058 -1.2954053,-1.43192 -1.2954053,-1.98312 0,-1.19278 2.0928913,-1.66366 4.9422021,-1.11194 1.3141831,0.25447 1.4619184,0.17546 1.9276222,-1.0309 0.1966171,-0.50932 0.5660152,-1.40229 0.8208804,-1.98437 0.2548652,-0.58209 0.5469705,-1.50482 0.6491234,-2.05053 0.1021504,-0.5457 0.2720473,-0.99218 0.3775472,-0.99218 0.1975247,0 1.0722081,-3.31834 1.0722081,-4.06771 0,-0.23107 -0.2678906,-0.49034 -0.5953125,-0.57615 -1.7362726,-0.45507 -2.719115,-3.70847 -1.4714643,-4.87083 0.3184816,-0.29672 0.6756691,-0.53948 0.79375,-0.53948 0.1180809,0 0.2146935,0.72576 0.2146935,1.6128 0,2.50253 1.56429873,4.29898 1.99390273,2.2898 0.1011237,-0.47294 0.3379681,-1.15755 0.5263144,-1.52135 0.188349,-0.3638 0.78862237,-1.58724 1.33394187,-2.71875 0.5842582,-1.21231 1.4094117,-2.43486 2.0090104,-2.97656 0.8918416,-0.80573 1.1907573,-0.91927 2.4200644,-0.91927 1.257226,0 1.4961262,0.0965 2.3057407,0.93186 0.8068204,0.83243 0.8999379,1.07946 0.8726487,2.3151 -0.037195,1.68433 -0.8465211,3.56751 -2.0396253,4.74593 -1.5703392,1.551 -1.6177605,1.57302 -5.8913185,2.73605 -0.1681797,0.0458 -0.3902869,0.47822 -0.49357487,0.96099 -0.1032854,0.48278 -0.2775903,0.99684 -0.3873421,1.14236 -0.1097518,0.14552 -0.3496442,0.74083 -0.5330957,1.32292 -0.1834515,0.58208 -0.4215765,1.17739 -0.5291667,1.32291 -0.1075902,0.14552 -0.345948,0.74084 -0.52968263,1.32292 -0.1837346,0.58208 -0.7267707,1.73522 -1.2067434,2.56253 -1.008687,1.73863 -0.9586331,1.83532 1.2072593,2.33226 0.80036463,0.18363 1.57427093,0.42371 1.71979173,0.53351 0.50911917,0.38413 4.15013777,0.84213 5.31092577,0.66806 0.6689011,-0.10031 1.171366,-0.0705 1.171366,0.0695 0,0.50882 -1.180592,1.71748 -2.0203002,2.06833 -0.9628452,0.40231 -1.1842353,0.41114 -2.3453248,0.0935 z m -8.6798578,-2.76305 c 0.6647712,-0.58484 0.6870517,-0.65414 0.213191,-0.66309 -0.291042,-0.005 -0.870199,-0.18785 -1.2870148,-0.40523 -0.416817,-0.21739 -1.220489,-0.39525 -1.785938,-0.39525 -1.157229,0 -1.3507143,0.47998 -0.616212,1.52863 0.601025,0.85808 2.466351,0.82317 3.4759738,-0.0651 z m 9.9298103,-13.5038 c 2.4619956,-1.67298 4.2535291,-6.40002 2.9651379,-7.82368 -0.7859184,-0.86843 -2.1076366,0.24468 -3.1656154,2.66599 -0.2225463,0.50933 -0.5614326,1.2237 -0.7530835,1.5875 -0.1916509,0.36381 -0.5019014,1.23008 -0.689446,1.92505 -0.1875446,0.69497 -0.4437221,1.32708 -0.5692801,1.40468 -0.1255607,0.0776 -0.2282905,0.31266 -0.2282905,0.52235 0,0.61114 1.3570242,0.4544 2.4405776,-0.28189 z M 71.05396,148.7073 c -0.970325,-0.2532 -2.251511,-1.73027 -2.421186,-2.79136 -0.181367,-1.13419 -0.503582,-1.27755 -0.910661,-0.40518 -0.389351,0.83438 -2.464586,2.03916 -3.836311,2.22718 -1.516425,0.20785 -2.371566,-0.34496 -2.758929,-1.78352 l -0.290574,-1.07911 -1.320183,1.34117 c -1.423125,1.44576 -1.983055,1.6926 -3.542342,1.56165 -1.266818,-0.1064 -2.017157,-1.0317 -2.075778,-2.55981 -0.02307,-0.6015 -0.05994,-1.09431 -0.08192,-1.09513 -0.02199,-7.9e-4 -0.73636,0.68315 -1.5875,1.51993 -1.509594,1.48413 -3.345675,2.5241 -5.025851,2.84667 -1.586219,0.30453 -3.880863,-1.0876 -4.201893,-2.54924 -0.09187,-0.41829 -0.224779,-0.76052 -0.295349,-0.76052 -0.07057,0 -0.715007,0.50601 -1.432078,1.12448 -1.945162,1.67767 -3.524044,1.97518 -4.627301,0.87192 -0.709671,-0.70967 -0.865566,-2.17233 -0.40332,-3.78409 0.135363,-0.47198 0.211087,-0.85815 0.168277,-0.85815 -0.04281,0 -0.421455,0.49873 -0.841428,1.10829 -0.866759,1.25803 -1.639617,2.08558 -3.103724,3.32339 -0.807714,0.68287 -1.254514,0.85999 -2.169348,0.85999 -0.995579,0 -1.243835,-0.12023 -1.827051,-0.88487 -0.687805,-0.90176 -0.978159,-3.08388 -0.410339,-3.08388 0.14552,0 0.264583,-0.16872 0.264583,-0.37494 0,-1.58825 3.896519,-6.42141 5.703856,-7.07496 0.500898,-0.18112 0.910727,-0.42446 0.910727,-0.54075 0,-0.33536 1.976965,-0.2453 2.328334,0.10607 0.500666,0.50066 0.380476,0.97234 -0.208521,0.81832 -0.289311,-0.0757 -0.947584,-0.0585 -1.462828,0.0382 -1.258687,0.23614 -3.633518,2.64634 -4.26383,4.32734 -0.256865,0.68504 -0.579998,1.32294 -0.718071,1.41756 -0.138073,0.0946 -0.26325,0.92805 -0.278167,1.85208 l -0.02713,1.68006 0.955506,0.0799 c 1.14142,0.0955 2.150311,-0.6528 3.644688,-2.70322 1.102376,-1.51256 3.345016,-5.95497 3.617725,-7.16629 0.189359,-0.84111 0.89408,-2.53426 1.728748,-4.15347 0.277405,-0.53815 0.504375,-1.11388 0.504375,-1.27941 0,-0.30596 1.551924,-3.60877 1.922812,-4.09212 0.111662,-0.14553 0.472694,-0.68131 0.802296,-1.19063 0.771374,-1.19198 2.037392,-1.46284 2.037392,-0.43589 0,0.36167 -0.17567,0.99466 -0.390379,1.40664 -0.82816,1.58904 -4.107538,8.51782 -4.107538,8.67854 0,0.0931 -0.225904,0.66881 -0.50201,1.27929 -0.276106,0.61048 -0.657262,1.64574 -0.847016,2.30059 -0.189751,0.65484 -0.420147,1.25015 -0.511992,1.32291 -0.586084,0.46431 -1.03492,5.89962 -0.513776,6.2217 1.014238,0.62683 4.01048,-1.78963 4.507455,-3.63526 0.896067,-3.32774 4.965364,-7.08435 7.67402,-7.08435 0.862648,0 1.03441,0.11267 1.424321,0.93435 0.407765,0.8593 0.410128,1.04874 0.02941,2.35835 -0.288547,0.99257 -0.674262,1.63254 -1.273128,2.11234 -0.47254,0.37859 -0.989401,0.79295 -1.148585,0.92079 -0.552281,0.44355 -1.935414,1.0825 -2.343272,1.0825 -0.225507,0 -0.410014,0.10555 -0.410014,0.23454 0,0.129 -0.550198,0.31705 -1.222666,0.41789 l -1.222666,0.18335 0.135173,1.19925 c 0.186841,1.65764 0.850678,2.26085 2.480328,2.2538 1.803448,-0.008 3.279368,-0.70964 4.629235,-2.2013 1.553276,-1.71644 2.015863,-2.49324 2.346037,-3.93961 0.182705,-0.80037 0.420145,-1.57427 0.527645,-1.71979 0.107498,-0.14553 0.345546,-0.74084 0.528998,-1.32292 0.183451,-0.58208 0.421576,-1.1774 0.529166,-1.32292 0.10759,-0.14552 0.330124,-0.6813 0.494514,-1.19062 0.387313,-1.19998 2.664331,-5.6572 3.566954,-6.98224 0.385567,-0.56601 0.701032,-1.12638 0.701032,-1.24527 0,-0.11889 0.474766,-0.72735 1.055034,-1.35214 0.580271,-0.62479 1.056521,-1.22527 1.058334,-1.33442 0.0019,-0.10914 0.296367,-0.19843 0.65456,-0.19843 0.539364,0 0.706501,0.1932 0.972781,1.12448 0.176837,0.61846 0.286123,1.24354 0.242858,1.38906 -0.04326,0.14552 -0.252611,1.00872 -0.465214,1.91823 -0.212601,0.9095 -0.495893,1.65364 -0.629534,1.65364 -0.133641,0 -0.242985,0.19107 -0.242985,0.4246 0,0.66758 -1.59765,3.73902 -2.447396,4.70505 -0.254662,0.28951 -0.463021,0.63393 -0.463021,0.76538 0,0.35078 -1.021506,1.64939 -2.404258,3.05646 -1.665933,1.69522 -2.093659,2.67717 -2.093659,4.80649 0,1.37914 0.106937,1.8672 0.483854,2.20831 0.52926,0.47897 1.632813,0.5961 1.632813,0.1733 0,-0.14552 0.169926,-0.26459 0.377613,-0.26459 0.415862,0 2.003637,-1.79745 2.003637,-2.26823 0,-0.16257 0.238125,-0.51108 0.529167,-0.77447 0.291041,-0.26339 0.529166,-0.64666 0.529166,-0.85171 0,-0.20506 0.297657,-1.02357 0.661459,-1.81892 0.363802,-0.79536 0.661458,-1.56429 0.661458,-1.70875 0,-0.14446 0.496591,-0.80139 1.103532,-1.45985 1.214631,-1.31772 2.138807,-1.49729 2.288307,-0.44463 0.0465,0.32742 -0.03356,0.59531 -0.177919,0.59531 -0.144356,0 -0.395962,0.4045 -0.559122,0.89889 -0.163161,0.49438 -0.529583,1.16744 -0.814269,1.49569 -0.284686,0.32824 -0.517612,0.75719 -0.517612,0.9532 0,0.19601 -0.119063,0.35639 -0.264584,0.35639 -0.14552,0 -0.245356,0.0893 -0.221858,0.19844 0.0235,0.10914 -0.100859,0.54753 -0.276349,0.97421 -0.175491,0.42668 -0.284015,1.43871 -0.241163,2.24896 l 0.07791,1.47318 1.247373,0.0803 c 1.138396,0.0733 1.348129,-0.0126 2.400697,-0.98284 0.63433,-0.5847 1.369065,-1.51379 1.632746,-2.06463 0.263681,-0.55085 0.72915,-1.53732 1.034378,-2.19216 0.591267,-1.26853 2.978997,-3.96875 3.50945,-3.96875 0.174744,0 0.362439,-0.13416 0.417097,-0.29814 0.05466,-0.16398 0.710544,-0.35687 1.457518,-0.42864 1.19898,-0.11521 1.437965,-0.0507 2.039334,0.55069 0.923015,0.92302 0.939202,2.49538 0.03639,3.53477 -0.6077,0.69963 -0.67111,0.71647 -1.101751,0.29262 -0.358548,-0.3529 -0.389771,-0.53068 -0.145,-0.82561 0.171567,-0.20673 0.339934,-0.83319 0.374147,-1.39214 0.04906,-0.80152 -0.04006,-1.03735 -0.421743,-1.11605 -1.45311,-0.29961 -3.502512,1.90273 -4.560662,4.901 -0.829631,2.35076 -0.82835,3.50107 0.0049,4.40015 0.715809,0.77238 1.395786,0.85911 3.19114,0.40703 1.404525,-0.35366 3.982527,-2.63523 4.251404,-3.76255 0.259017,-1.08598 1.314966,-3.18944 1.805488,-3.59653 0.232042,-0.19258 0.421894,-0.49189 0.421894,-0.66512 0,-0.55508 2.447666,-2.50684 3.898784,-3.10888 2.177526,-0.9034 3.581709,-0.2897 3.581709,1.56538 0,2.27328 -2.178566,4.42719 -5.674823,5.61061 -2.084356,0.70551 -2.206995,0.78985 -2.285455,1.5718 -0.04608,0.45926 0.04206,0.82627 0.198438,0.82627 0.154741,0 0.281347,0.22355 0.281347,0.49677 0,1.02551 1.500193,1.47274 3.511921,1.04695 1.013237,-0.21445 1.595887,-0.58968 2.946715,-1.8977 0.926065,-0.89671 1.889471,-1.95781 2.140905,-2.358 0.710919,-1.1315 1.031377,-0.85581 0.370998,0.31917 -0.695229,1.237 -3.092349,3.71573 -3.593388,3.71573 -0.192537,0 -0.350515,0.0893 -0.35106,0.19844 -0.0019,0.34719 -2.476521,1.23869 -3.438591,1.23869 -1.442085,0 -2.902942,-0.87806 -3.566025,-2.14338 l -0.578083,-1.10312 -1.169093,1.13259 c -1.866718,1.80845 -4.306769,2.77597 -5.931591,2.35197 z m -24.447294,-6.21569 c 0.494657,-0.16893 0.99459,-0.46659 1.110962,-0.66145 0.116371,-0.19487 0.357727,-0.3543 0.536347,-0.3543 0.976516,0 3.193608,-2.9649 3.037269,-4.06171 -0.30212,-2.11953 -4.301773,0.92644 -5.594001,4.26015 -0.475049,1.22555 -0.422958,1.27236 0.909423,0.81731 z m 37.147295,-0.9118 c 2.479873,-1.72094 3.042708,-2.48301 3.042708,-4.11977 0,-0.78811 -0.03226,-0.81068 -0.946748,-0.66228 -0.652219,0.10584 -1.349748,0.54874 -2.242164,1.42368 -0.712478,0.69852 -1.298472,1.36566 -1.30221,1.48252 -0.0037,0.11686 -0.304451,0.65051 -0.668253,1.1859 -0.363802,0.53538 -0.661459,1.19682 -0.661459,1.46985 0,0.69989 1.084446,0.39545 2.778126,-0.7799 z m -24.870834,-4.18725 c 0.436562,-0.54044 0.842232,-1.12272 0.901488,-1.29393 0.05925,-0.17122 0.409554,-0.78756 0.778441,-1.36964 1.130821,-1.78438 1.783469,-3.11828 2.168364,-4.43178 0.202552,-0.69122 0.461343,-1.25677 0.575096,-1.25677 0.113749,0 0.206819,-0.41671 0.206819,-0.92604 0,-1.21519 -0.49004,-1.18951 -1.297085,0.068 -0.349594,0.5447 -0.831758,1.28803 -1.071473,1.65183 -0.99763,1.51404 -3.584927,7.12823 -4.145732,8.99584 l -0.357519,1.19062 0.723924,-0.82273 c 0.398161,-0.4525 1.081114,-1.26491 1.517677,-1.80536 z m -47.437592,11.04851 c -1.422326,-0.29495 -3.2555838,-3.21286 -2.7001705,-4.29773 0.1178454,-0.23019 0.3511841,-0.93098 0.5185304,-1.55733 0.8331761,-3.11841 4.8593051,-6.93098 7.3192221,-6.93098 1.676032,0 2.422959,1.61781 1.67168,3.62079 -0.299628,0.79884 -2.770961,3.25837 -3.274,3.25837 -0.16692,0 -0.744096,0.22464 -1.28261,0.49919 -0.538517,0.27455 -1.397127,0.5776 -1.908026,0.67344 -0.890339,0.16703 -0.92891,0.22129 -0.92891,1.30678 0,3.45357 5.100299,2.99602 7.710609,-0.69172 1.32929,-1.87797 1.719935,-2.32312 1.889697,-2.15335 0.207401,0.2074 -0.377172,1.50352 -0.797338,1.76787 -0.184965,0.11638 -0.336302,0.31557 -0.336302,0.44267 0,0.54419 -2.628595,2.75774 -4.178845,3.51903 -0.963737,0.47327 -2.765702,0.73745 -3.703537,0.54297 z m 0.963735,-5.93276 c 0.458277,-0.15976 0.83323,-0.38497 0.83323,-0.50048 0,-0.11551 0.300625,-0.28547 0.668057,-0.37769 0.928556,-0.23305 2.698761,-2.01749 2.927621,-2.95115 0.104481,-0.42625 0.312806,-0.85523 0.462944,-0.95328 0.367969,-0.24031 -0.281194,-1.01271 -0.849871,-1.01122 -1.25471,0.003 -3.669588,2.40418 -4.705501,4.67823 -0.252846,0.55505 -0.505687,1.09848 -0.561866,1.20762 -0.142648,0.27712 0.251327,0.24753 1.225386,-0.092 z m 102.19628,5.51133 c -1.00947,-0.52488 -1.83914,-1.52723 -2.22685,-2.69036 -0.0494,-0.14819 -0.59934,0.1667 -1.2221,0.69976 -2.19318,1.87729 -3.7386,2.2447 -4.77981,1.13639 -0.49355,-0.52537 -0.61423,-0.93316 -0.59007,-1.99399 0.0167,-0.73345 0.10366,-1.59712 0.19323,-1.91925 0.11997,-0.43148 -0.0677,-0.31273 -0.71282,0.45099 -1.62597,1.92494 -3.40492,3.61259 -4.07766,3.86836 -3.051957,1.16035 -4.577577,-1.49064 -2.930331,-5.09189 0.756012,-1.65281 2.820191,-4.32466 3.989621,-5.16415 2.06047,-1.4791 3.85573,-1.90546 4.78299,-1.1359 0.6663,0.55297 0.45945,0.75564 -0.62304,0.61045 -1.1126,-0.14923 -2.8383,0.65859 -3.92504,1.83734 -0.75464,0.81855 -2.45783,4.23473 -2.45783,4.92983 0,0.31046 -0.119067,0.56447 -0.264587,0.56447 -0.392478,0 -0.304697,1.11539 0.133323,1.69412 0.247384,0.32686 0.684324,0.49488 1.245444,0.47892 0.70061,-0.0199 1.14063,-0.32216 2.32248,-1.59528 0.80197,-0.86389 1.57718,-1.73425 1.7227,-1.93413 0.46392,-0.63721 2.16628,-4.26755 2.89996,-6.18425 0.38992,-1.01865 0.87921,-2.22727 1.08731,-2.68582 0.2081,-0.45856 0.37836,-0.92332 0.37836,-1.0328 0,-0.21446 0.83312,-2.05219 2.27386,-5.01575 0.96226,-1.97935 2.01116,-3.30417 2.61602,-3.30417 1.05149,0 0.76256,1.08073 -1.62688,6.08541 -0.93795,1.96454 -1.86167,3.86954 -2.05271,4.23334 -0.19104,0.3638 -0.55726,1.3163 -0.81383,2.11666 -0.25656,0.80037 -0.56601,1.58192 -0.68766,1.73679 -0.20888,0.26592 -0.91981,2.90685 -1.17063,4.34863 -0.40614,2.33454 -0.40846,2.53566 -0.0351,3.03853 0.35896,0.48345 0.47025,0.4967 1.40638,0.16747 1.3707,-0.48206 2.38513,-1.47872 3.1545,-3.09924 0.3521,-0.74164 0.64019,-1.44962 0.64019,-1.57328 0,-0.39774 1.42361,-2.30643 2.51355,-3.37002 0.58208,-0.56802 1.62488,-1.36001 2.31732,-1.75999 1.07838,-0.62291 1.43338,-0.70077 2.47455,-0.54276 1.38524,0.21023 1.68451,0.53994 1.67699,1.84762 -0.007,1.15408 -0.37493,1.82681 -1.81181,3.30946 -0.96583,0.9966 -2.9382,2.05475 -4.39247,2.35651 -1.27146,0.26383 -1.45521,0.46195 -1.45521,1.56903 0,0.61266 0.17432,1.36281 0.38738,1.66699 1.39114,1.98613 6.77027,-0.22549 7.85683,-3.2303 0.19413,-0.53687 0.66051,-1.06177 1.20297,-1.3539 0.79452,-0.42788 2.45907,-2.18546 2.45907,-2.59652 0,-0.089 0.29766,-0.59988 0.66146,-1.13526 0.38571,-0.56762 0.66146,-1.34929 0.66146,-1.87503 0,-0.54838 0.1814,-1.0393 0.46302,-1.25308 0.88176,-0.66935 1.12448,-0.44269 1.12448,1.05011 0,0.78012 0.29104,2.33543 0.64676,3.45623 0.86526,2.72623 0.99588,5.80645 0.29091,6.86026 -0.83386,1.24647 -2.32279,2.02342 -3.87765,2.02342 -1.25653,0 -1.45326,-0.0903 -2.51879,-1.15581 -0.64172,-0.64172 -1.15582,-1.40667 -1.15582,-1.71979 0,-0.31019 -0.0703,-0.56398 -0.15624,-0.56398 -0.0859,0 -0.79406,0.54491 -1.57362,1.21091 -1.28405,1.097 -2.50388,1.6413 -4.75243,2.12059 -0.29104,0.062 -1.05251,-0.15931 -1.69215,-0.49189 z m 13.29814,-1.00673 c 0.38342,-0.30161 0.69714,-0.64587 0.69714,-0.76502 0,-0.11916 -0.4846,-0.41055 -1.07689,-0.64754 -0.59228,-0.23699 -1.50369,-0.84539 -2.02534,-1.35202 -0.92683,-0.90012 -0.95696,-0.90901 -1.32077,-0.38959 -0.76484,1.09196 0.94373,3.70254 2.42324,3.70254 0.33301,0 0.91919,-0.24677 1.30262,-0.54837 z m 0.96172,-3.2325 c 0,-1.50234 -0.5979,-4.57924 -0.9598,-4.93932 -0.0793,-0.0788 -0.36917,0.1543 -0.64429,0.5181 -0.27511,0.36381 -0.67962,0.89959 -0.8989,1.19063 -0.21928,0.29104 -0.65021,0.86013 -0.95762,1.26464 l -0.55893,0.73548 0.70105,0.91914 c 0.66912,0.87725 2.2844,1.93897 2.98776,1.96384 0.23077,0.008 0.33073,-0.4913 0.33073,-1.65251 z m -11.83609,-1.7427 c 1.93839,-1.01965 3.25947,-2.32803 3.59271,-3.55815 0.44402,-1.63907 0.0597,-2.06188 -1.37749,-1.51546 -1.02601,0.39008 -1.70283,1.06301 -2.94117,2.92426 -2.01765,3.03255 -1.85703,3.50808 0.72595,2.14935 z m 88.7045,6.11209 c -1.29767,-0.43084 -1.84566,-0.91129 -2.27739,-1.99671 -0.18394,-0.46242 -0.35605,-0.87302 -0.38249,-0.91244 -0.0264,-0.0394 -0.57143,0.42129 -1.2111,1.02381 -1.31144,1.23524 -1.99521,1.5614 -3.27342,1.5614 -1.1606,0 -2.25526,-1.22988 -2.25526,-2.53384 0,-1.15136 -0.235,-1.13978 -1.04649,0.0516 -0.3573,0.52455 -0.95261,1.14606 -1.32292,1.38114 -0.37031,0.23509 -0.74246,0.52369 -0.827,0.64135 -0.22251,0.3097 -1.96249,0.55045 -2.67887,0.37065 -0.76828,-0.19283 -1.53305,-1.45564 -1.53305,-2.5314 0,-0.45049 -0.0757,-0.81907 -0.1681,-0.81907 -0.18368,0 -1.3077,1.16046 -1.45821,1.50549 -0.0514,0.11786 -0.62926,0.56329 -1.28411,0.98984 -2.47347,1.61115 -5.02708,0.79887 -5.02708,-1.59908 0,-1.02828 1.19324,-5.34457 1.56437,-5.65875 0.0859,-0.0728 0.33467,-0.47953 0.55272,-0.90392 0.56446,-1.09864 1.80407,-2.27108 2.40118,-2.27108 0.79298,0 0.63031,0.98844 -0.4572,2.77812 -1.95177,3.21195 -2.7315,6.26216 -1.83101,7.16265 0.52498,0.52498 1.83577,0.47206 2.79775,-0.11295 1.55544,-0.94592 3.43162,-4.00671 3.43738,-5.60772 7.9e-4,-0.22556 0.1059,-0.52321 0.23354,-0.66146 0.12763,-0.13824 0.44104,-0.90619 0.69646,-1.70656 0.25543,-0.80036 0.54627,-1.57427 0.64633,-1.71979 0.10005,-0.14552 0.34148,-0.7706 0.5365,-1.38906 0.19503,-0.61847 0.4546,-1.12448 0.57683,-1.12448 0.12223,0 0.22223,-0.12461 0.22223,-0.2769 0,-0.3765 1.89865,-4.2356 2.33267,-4.74127 0.19156,-0.22319 0.66781,-0.89745 1.05833,-1.49838 1.16134,-1.78703 2.41657,-3.07016 2.84323,-2.90643 0.6426,0.24659 0.9692,1.51379 0.79201,3.07298 -0.091,0.80036 -0.28033,1.49489 -0.42081,1.5434 -0.14048,0.0485 -0.25543,0.26878 -0.25543,0.4895 0,0.67005 -2.06143,4.7882 -3.33321,6.65879 -0.65788,0.96764 -1.92213,2.57545 -2.80944,3.5729 l -1.61328,1.81356 -0.12519,1.95069 c -0.20259,3.15677 0.89407,4.11717 2.92109,2.55814 0.98776,-0.75971 2.84337,-3.62636 2.84337,-4.39259 0,-0.24378 0.11271,-0.64998 0.25046,-0.90267 0.13776,-0.25269 0.44392,-1.11427 0.68035,-1.91464 0.5362,-1.81508 0.53163,-1.80428 2.48393,-5.87747 0.88679,-1.85015 1.61234,-3.48726 1.61234,-3.63802 0,-0.15075 0.11664,-0.27409 0.25921,-0.27409 0.14256,0 0.51079,-0.49316 0.81829,-1.09592 0.64923,-1.27257 2.80637,-3.66658 3.30381,-3.66658 0.18708,0 0.48063,0.42564 0.65232,0.94588 0.49998,1.51495 0.0837,3.33226 -1.63178,7.12391 -0.13168,0.29104 -0.52606,1.00542 -0.8764,1.5875 -0.35034,0.58208 -0.84139,1.41391 -1.0912,1.84851 -0.68113,1.18492 -3.25336,4.30104 -3.99822,4.84363 -0.5761,0.41966 -0.67126,0.7326 -0.80176,2.63651 -0.11973,1.7469 -0.0638,2.28887 0.29201,2.83199 0.58875,0.89855 1.44529,0.85662 2.68882,-0.13162 1.16381,-0.92488 1.89352,-2.02599 2.35266,-3.55007 0.74364,-2.4685 3.81872,-5.93311 5.7997,-6.53435 1.06885,-0.3244 2.5077,-0.2306 2.92927,0.19096 0.58008,0.58009 0.52772,2.44009 -0.0976,3.46556 -0.71825,1.17794 -3.10032,2.8935 -4.51375,3.25079 -0.65485,0.16553 -1.53223,0.43478 -1.94974,0.59832 -0.72944,0.28574 -0.75296,0.34927 -0.60184,1.6253 0.0865,0.73037 0.34187,1.51253 0.56747,1.73813 0.56003,0.56003 3.16618,0.50893 4.31108,-0.0845 1.11661,-0.57879 3.49386,-2.89921 3.49386,-3.41033 0,-0.21504 0.6496,-0.94595 1.44355,-1.62424 1.65449,-1.41348 3.00674,-3.28368 3.2437,-4.48619 0.28872,-1.46508 0.85603,-2.54692 1.33557,-2.54683 0.38909,7e-5 0.4622,0.27363 0.47725,1.78594 0.0103,1.02557 0.19616,2.18009 0.43672,2.71189 0.57026,1.26052 0.71737,1.90947 0.97788,4.31341 l 0.2237,2.06445 -0.96033,1.07106 c -0.52819,0.58909 -1.28185,1.23767 -1.67479,1.44128 -0.78756,0.40809 -3.122,0.50852 -3.122,0.13432 0,-0.12975 -0.28542,-0.30754 -0.63427,-0.39509 -0.63374,-0.15906 -1.74698,-1.70554 -1.74698,-2.42684 0,-0.63025 -0.60723,-0.41944 -1.56539,0.54344 -1.68796,1.6963 -4.50178,2.61932 -6.23287,2.04458 z m 13.39261,-1.60985 c 0.17391,-0.47013 0.0367,-0.62535 -0.93094,-1.0534 -0.6242,-0.27611 -1.51621,-0.87475 -1.98224,-1.33031 -0.46603,-0.45556 -0.96229,-0.8283 -1.10279,-0.8283 -0.35204,0 -0.32212,2.21007 0.0407,3.00638 0.42425,0.93113 1.98365,1.49165 2.99432,1.0763 0.42733,-0.17562 0.86876,-0.56742 0.98094,-0.87067 z m 0.49107,-2.14286 c 0,-1.68037 -0.56103,-4.98031 -0.93322,-5.48934 -0.31424,-0.42973 -0.38195,-0.3946 -0.82896,0.43005 -0.26773,0.49391 -0.6726,1.09496 -0.89972,1.33567 -0.86406,0.91576 -1.24361,1.64853 -1.11287,2.1485 0.20126,0.76961 2.4273,2.62264 3.15056,2.62264 0.55078,0 0.62421,-0.12322 0.62421,-1.04752 z m -13.22917,-1.57729 c 0,-0.13396 0.34484,-0.3193 0.76631,-0.41187 0.42148,-0.0926 0.97571,-0.39969 1.23164,-0.68248 0.25592,-0.2828 0.59607,-0.51417 0.75589,-0.51417 0.80418,0 2.53783,-2.6356 2.53783,-3.85816 0,-0.67593 -0.0504,-0.70267 -1.06722,-0.56629 -0.82064,0.11007 -1.36547,0.43905 -2.35817,1.4239 -1.56015,1.54782 -3.10906,4.30763 -2.59922,4.63123 0.44804,0.28437 0.73294,0.27575 0.73294,-0.0222 z M 192.63,139.33897 c 0,-0.0866 0.40893,-0.68307 0.90874,-1.32542 1.26509,-1.62586 3.77058,-6.11486 4.16312,-7.45889 0.17948,-0.61454 0.40425,-1.17687 0.49949,-1.24963 0.0952,-0.0728 0.25525,-0.57878 0.3556,-1.12448 0.1444,-0.7853 0.1,-0.99219 -0.21296,-0.99219 -0.42487,0 -1.74524,1.57023 -1.74524,2.0755 0,0.16816 -0.10088,0.30575 -0.22418,0.30575 -0.28467,0 -2.15707,3.55359 -2.15707,4.09386 0,0.22223 -0.0926,0.40406 -0.20571,0.40406 -0.27697,0 -1.59356,3.05779 -2.03165,4.71853 -0.33979,1.28807 -0.33441,1.32511 0.14865,1.02343 0.27566,-0.17215 0.50121,-0.38389 0.50121,-0.47052 z m 8.5463,-1.64751 c 1.72645,-2.43945 4.53241,-8.00249 4.79723,-9.51091 0.29145,-1.66007 -0.73834,-1.17461 -2.1047,0.99219 -0.93753,1.48673 -3.56592,6.84901 -3.56592,7.27494 0,0.23344 -0.12517,0.5496 -0.27815,0.70258 -0.43401,0.43401 -1.0514,2.99102 -0.68495,2.83684 0.1659,-0.0698 0.99233,-1.10285 1.83649,-2.29564 z m -69.92964,7.99573 c 0,-0.13342 0.12938,-0.24258 0.2875,-0.24258 0.15813,0 0.93921,-0.66751 1.73574,-1.48336 0.79652,-0.81586 1.49077,-1.44082 1.54277,-1.38882 0.052,0.052 -0.22306,0.56142 -0.61125,1.13203 -0.66279,0.97425 -2.95476,2.51223 -2.95476,1.98273 z m 91.54584,-0.46245 c 0,-0.12093 0.26789,-0.366 0.59531,-0.54459 0.32742,-0.17859 0.88715,-0.79402 1.2438,-1.36762 0.35669,-0.57361 0.74639,-1.04292 0.86601,-1.04292 0.29943,0 -0.51686,1.27538 -1.48177,2.3151 -0.78396,0.84478 -1.22335,1.07466 -1.22335,0.64003 z M 52.429532,133.17606 c -0.378961,-0.45662 0.397176,-1.89802 1.750967,-3.25181 0.922353,-0.92235 1.081844,-0.9875 1.770571,-0.72321 0.709578,0.27229 0.47485,0.70061 -1.401223,2.55686 -1.495856,1.48005 -1.864387,1.72654 -2.120315,1.41816 z m 13.873482,0.007 c -0.565718,-0.41366 -0.38514,-1.76096 0.236022,-1.76096 0.203383,0 0.409472,-0.11026 0.457981,-0.24502 0.132815,-0.36899 1.360265,-0.58712 1.776719,-0.31575 0.254646,0.16594 0.314217,0.5122 0.196273,1.14089 -0.134032,0.71445 -0.352081,0.96873 -1.045853,1.2196 -1.081894,0.39122 -1.03147,0.39242 -1.621142,-0.0388 z m 119.778546,-0.0708 c -0.5005,-0.22216 -0.39821,-0.74276 0.26458,-1.34644 0.86408,-0.78702 1.68778,-1.15857 2.16365,-0.97597 0.44519,0.17084 0.55716,1.32288 0.18554,1.90904 -0.23604,0.37229 -2.05739,0.66035 -2.61377,0.41337 z"
       id="path826"
       inkscape:connector-curvature="0" />
  </g>
</svg>
