<?xml version="1.0" encoding="UTF-8" standalone="no"?>
<!-- Created with Inkscape (http://www.inkscape.org/) -->

<svg
   xmlns:dc="http://purl.org/dc/elements/1.1/"
   xmlns:cc="http://creativecommons.org/ns#"
   xmlns:rdf="http://www.w3.org/1999/02/22-rdf-syntax-ns#"
   xmlns:svg="http://www.w3.org/2000/svg"
   xmlns="http://www.w3.org/2000/svg"
   xmlns:sodipodi="http://sodipodi.sourceforge.net/DTD/sodipodi-0.dtd"
   xmlns:inkscape="http://www.inkscape.org/namespaces/inkscape"
   width="88.291901mm"
   height="25.366335mm"
   viewBox="0 0 88.291901 25.366335"
   version="1.1"
   id="svg8"
   inkscape:version="0.92.5 (2060ec1f9f, 2020-04-08)"
   sodipodi:docname="menu délice.svg">
  <defs
     id="defs2" />
  <sodipodi:namedview
     id="base"
     pagecolor="#ffffff"
     bordercolor="#666666"
     borderopacity="1.0"
     inkscape:pageopacity="0.0"
     inkscape:pageshadow="2"
     inkscape:zoom="0.7"
     inkscape:cx="-257.9514"
     inkscape:cy="-302.31311"
     inkscape:document-units="mm"
     inkscape:current-layer="layer1"
     showgrid="false"
     fit-margin-top="0"
     fit-margin-left="0"
     fit-margin-right="0"
     fit-margin-bottom="0"
     inkscape:window-width="1920"
     inkscape:window-height="1017"
     inkscape:window-x="1912"
     inkscape:window-y="-8"
     inkscape:window-maximized="1" />
  <metadata
     id="metadata5">
    <rdf:RDF>
      <cc:Work
         rdf:about="">
        <dc:format>image/svg+xml</dc:format>
        <dc:type
           rdf:resource="http://purl.org/dc/dcmitype/StillImage" />
        <dc:title></dc:title>
      </cc:Work>
    </rdf:RDF>
  </metadata>
  <g
     inkscape:label="Calque 1"
     inkscape:groupmode="layer"
     id="layer1"
     transform="translate(-51.240712,-43.479988)">
    <path
       style="fill:#0788f9;fill-opacity:1;stroke-width:0.26458335"
       d="m 51.885073,68.449362 c -1.035135,-0.81424 -0.911442,-1.97112 1.020646,-9.546 1.863384,-7.30553 2.52449,-10.65198 2.52449,-12.77871 0,-1.64985 0.51239,-2.2553 1.908633,-2.2553 0.684639,0 1.046409,0.16215 1.328195,0.59531 0.213001,0.32742 1.251591,3.03609 2.307979,6.01927 2.244829,6.33925 2.895997,7.9375 3.233939,7.9375 0.433007,0 1.744131,-1.58253 6.028211,-7.27604 2.299438,-3.05594 4.6555,-6.06523 5.235694,-6.68732 0.982719,-1.05368 1.107017,-1.11126 1.816579,-0.84148 1.280454,0.48683 1.743991,1.06367 1.578412,1.96424 -0.242901,1.32113 -1.195753,9.08497 -1.44603,11.78227 -0.128275,1.38244 -0.179959,3.5851 -0.114853,4.89479 0.300159,6.03818 0.323596,5.94074 -1.430901,5.94907 -0.695203,0.003 -0.934662,-0.15367 -1.29376,-0.84809 -0.369406,-0.71435 -0.412919,-1.33783 -0.269102,-3.85588 0.216014,-3.78215 0.864571,-10.43739 1.262822,-12.95861 0.314158,-1.98885 0.196604,-2.57602 -0.370946,-1.85284 -0.180398,0.22987 -2.073892,2.72149 -4.207764,5.53693 -5.170506,6.82201 -6.458599,8.11558 -7.756753,7.78977 -0.870199,-0.21841 -1.391282,-1.28337 -3.352744,-6.85214 -0.881423,-2.50243 -1.701179,-4.72847 -1.82168,-4.94675 -0.19475,-0.35278 -0.23371,-0.35278 -0.350621,0 -0.302646,0.91321 -3.109532,14.05832 -3.409519,15.96735 -0.28625,1.82159 -0.412731,2.1214 -1.029536,2.44036 -0.629113,0.32533 -0.77569,0.30661 -1.391391,-0.1777 z m 34.03557,-0.39468 c -3.332168,-1.70583 -3.891455,-6.57677 -1.34914,-11.74992 1.418172,-2.88572 4.17703,-5.76874 6.161569,-6.43887 3.379253,-1.14109 5.505432,0.16074 5.064522,3.10093 -0.364902,2.43335 -2.562794,4.70623 -7.351062,7.60188 -2.294212,1.3874 -2.462305,1.54813 -2.537833,2.42672 -0.06343,0.73791 0.089,1.13091 0.706501,1.82149 0.736375,0.82351 0.896065,0.88029 2.464941,0.87645 2.128869,-0.005 3.979362,-0.8673 6.226278,-2.90065 0.887873,-0.80347 1.744414,-1.46086 1.903426,-1.46086 0.546473,0 0.294971,1.6829 -0.401751,2.68827 -0.789319,1.13899 -2.855302,2.79024 -4.6008,3.67723 -1.595147,0.81059 -5.02089,1.00531 -6.286651,0.35733 z m 2.480564,-9.93604 c 3.59696,-2.48658 5.195247,-4.44921 4.631269,-5.68701 -0.15657,-0.34363 -0.502039,-0.62478 -0.76771,-0.62478 -0.849817,0 -2.836653,1.47011 -3.847033,2.84653 -1.224654,1.66831 -2.637028,4.82638 -2.158487,4.82638 0.09516,0 1.059048,-0.6125 2.141961,-1.36112 z m 48.447573,10.02623 c -0.77122,-0.58125 -1.31071,-2.37733 -1.48104,-4.93074 l -0.16565,-2.48334 -0.89035,1.37667 c -2.93546,4.53886 -6.91435,6.92869 -8.97659,5.39158 -1.93428,-1.44172 -2.31688,-4.10229 -1.28636,-8.94532 0.37158,-1.74625 0.8106,-3.88937 0.97562,-4.7625 0.49639,-2.62651 0.60082,-2.85867 1.37949,-3.06682 0.52086,-0.13923 0.88957,-0.0625 1.30118,0.27081 0.80133,0.64888 0.70165,1.8167 -0.44034,5.15888 -1.85408,5.42626 -1.63997,9.45927 0.47516,8.95022 1.04759,-0.25212 3.26112,-2.11158 4.5419,-3.81538 1.44042,-1.91619 2.23215,-3.40032 3.31731,-6.21845 1.00047,-2.59816 1.45365,-3.26363 2.22251,-3.26363 1.10382,0 1.36515,0.62711 0.97366,2.33647 -1.44734,6.3195 -1.42237,9.73841 0.087,11.91647 0.86503,1.24824 0.86684,1.83075 0.007,2.15777 -0.91098,0.34635 -1.51269,0.32492 -2.04025,-0.0727 z m -35.62197,-0.63497 c -0.70506,-0.49384 -0.70127,-0.78777 0.0984,-7.63326 0.22099,-1.89177 0.40299,-4.24917 0.40444,-5.23866 0.003,-1.80667 0.45245,-3.18189 1.11734,-3.41615 0.18728,-0.066 0.63056,-0.0471 0.98506,0.042 1.26668,0.31836 1.30102,2.07453 0.16063,8.21591 -0.33777,1.81901 -0.55468,3.40648 -0.48202,3.52771 0.14855,0.24784 0.69283,-0.59684 2.26351,-3.51281 1.8426,-3.42079 3.09942,-5.25943 4.34396,-6.35492 1.83659,-1.61663 3.56367,-1.74664 4.93855,-0.37177 0.88949,0.88949 1.34245,2.47377 1.98415,6.93978 0.61011,4.24611 0.95956,4.82747 2.59926,4.32423 1.23084,-0.37776 1.61573,-0.0934 1.25641,0.92834 -0.60218,1.71228 -3.57446,2.55505 -4.84302,1.3732 -0.86682,-0.80756 -1.07626,-1.54326 -1.62736,-5.71652 -0.66873,-5.06395 -1.2463,-6.09563 -2.92622,-5.22691 -1.01083,0.52272 -2.04845,1.97252 -3.87375,5.41259 -3.69319,6.96039 -4.63243,7.94482 -6.39934,6.70722 z"
       id="path826"
       inkscape:connector-curvature="0" />
  </g>
</svg>
