<?xml version="1.0" encoding="UTF-8" standalone="no"?>
<!-- Created with Inkscape (http://www.inkscape.org/) -->

<svg
   xmlns:dc="http://purl.org/dc/elements/1.1/"
   xmlns:cc="http://creativecommons.org/ns#"
   xmlns:rdf="http://www.w3.org/1999/02/22-rdf-syntax-ns#"
   xmlns:svg="http://www.w3.org/2000/svg"
   xmlns="http://www.w3.org/2000/svg"
   xmlns:sodipodi="http://sodipodi.sourceforge.net/DTD/sodipodi-0.dtd"
   xmlns:inkscape="http://www.inkscape.org/namespaces/inkscape"
   width="107.13602mm"
   height="26.182507mm"
   viewBox="0 0 107.13602 26.182507"
   version="1.1"
   id="svg8"
   inkscape:version="0.92.5 (2060ec1f9f, 2020-04-08)"
   sodipodi:docname="Menu.svg">
  <defs
     id="defs2" />
  <sodipodi:namedview
     id="base"
     pagecolor="#ffffff"
     bordercolor="#666666"
     borderopacity="1.0"
     inkscape:pageopacity="0.0"
     inkscape:pageshadow="2"
     inkscape:zoom="0.35"
     inkscape:cx="-235.1022"
     inkscape:cy="-284.18547"
     inkscape:document-units="mm"
     inkscape:current-layer="layer1"
     showgrid="false"
     fit-margin-top="0"
     fit-margin-left="0"
     fit-margin-right="0"
     fit-margin-bottom="0"
     inkscape:window-width="1920"
     inkscape:window-height="1017"
     inkscape:window-x="1912"
     inkscape:window-y="-8"
     inkscape:window-maximized="1" />
  <metadata
     id="metadata5">
    <rdf:RDF>
      <cc:Work
         rdf:about="">
        <dc:format>image/svg+xml</dc:format>
        <dc:type
           rdf:resource="http://purl.org/dc/dcmitype/StillImage" />
        <dc:title></dc:title>
      </cc:Work>
    </rdf:RDF>
  </metadata>
  <g
     inkscape:label="Calque 1"
     inkscape:groupmode="layer"
     id="layer1"
     transform="translate(-45.195195,-47.460088)">
    <path
       style="fill:#3f1318;fill-opacity:1;stroke-width:0.26458335"
       d="m 79.255522,73.239708 c -1.256067,-0.68153 -1.315741,-1.66258 -0.36872,-6.06166 0.375163,-1.74269 1.003585,-5.59038 1.396497,-8.55041 0.696621,-5.24806 0.702887,-5.41386 0.251936,-6.66791 -0.789427,-2.19531 0.05947,-2.83722 3.810154,-2.8811 1.091406,-0.0128 4.264411,-0.31632 7.051122,-0.67456 3.858601,-0.49603 5.296965,-0.58777 6.032245,-0.38475 1.09778,0.30311 1.62724,1.15443 1.3658,2.19607 -0.30305,1.20747 -1.03975,1.4317 -5.661709,1.72331 -5.901891,0.37237 -7.699862,0.70144 -7.845229,1.43589 -0.06181,0.3123 -0.369319,1.73784 -0.683348,3.16786 -0.314026,1.43002 -0.515075,2.65592 -0.446773,2.72422 0.163201,0.1632 5.312273,-0.37349 6.670183,-0.69524 0.582084,-0.13792 1.862006,-0.25361 2.844271,-0.25708 1.438596,-0.005 1.888855,0.0966 2.315105,0.52286 0.67181,0.67181 0.67083,1.33603 -0.003,2.19296 -0.63575,0.80823 -0.666878,0.81568 -6.861782,1.64341 -2.745245,0.36681 -5.026835,0.79889 -5.214789,0.98756 -0.401368,0.40291 -1.252385,5.10931 -1.029089,5.69121 0.132024,0.34405 0.506613,0.38241 2.333598,0.23892 1.196983,-0.094 3.307424,-0.35463 4.689872,-0.57917 1.382448,-0.22454 3.302283,-0.47755 4.266301,-0.56225 1.551749,-0.13634 1.817249,-0.0895 2.315099,0.40834 0.3576,0.3576 0.56235,0.89705 0.56235,1.4816 0,1.25603 -0.8537,1.65618 -4.289449,2.01055 -1.497105,0.15442 -4.507947,0.51184 -6.690759,0.79427 -4.685972,0.60632 -5.837836,0.62241 -6.809658,0.0951 z m 22.816958,-0.115 c -0.82252,-0.82252 -0.68528,-3.1287 0.50385,-8.46667 1.40616,-6.31226 1.84099,-8.7386 2.14113,-11.94756 0.22866,-2.44477 0.32864,-2.80034 0.93692,-3.33213 0.85042,-0.74348 2.30752,-0.79131 3.00035,-0.0985 0.27326,0.27326 0.76631,1.31505 1.09568,2.3151 1.09149,3.3141 4.51086,9.38672 7.62434,13.54037 l 1.05191,1.40336 0.28109,-1.31067 c 0.43914,-2.04765 2.35254,-13.22419 2.56322,-14.97223 0.23351,-1.93763 0.95691,-2.79569 2.35691,-2.79569 0.77879,0 1.03278,0.14896 1.46625,0.8599 0.69943,1.14714 0.67583,1.50728 -0.39284,5.99559 -1.02775,4.31648 -2.44076,12.34989 -2.701,15.35611 -0.21839,2.52271 -0.85368,3.25599 -2.71574,3.13463 -1.20286,-0.0784 -1.20753,-0.0826 -2.92457,-2.60983 -4.97065,-7.31617 -6.08762,-9.01871 -7.14873,-10.89647 -0.63736,-1.12788 -1.24658,-1.96132 -1.35381,-1.85208 -0.20744,0.21131 -1.34624,7.54227 -1.81208,11.66506 -0.29521,2.61283 -0.74173,3.8214 -1.57698,4.26842 -0.80158,0.42899 -1.81922,0.31994 -2.3959,-0.25674 z m 34.93719,0.10927 c -4.23381,-1.14611 -6.31397,-3.54537 -7.20597,-8.31136 -0.3394,-1.81343 -0.18633,-3.54988 0.88305,-10.01755 0.97237,-5.88086 1.33355,-6.73057 2.91761,-6.86393 0.7952,-0.0669 1.04175,0.044 1.46979,0.66146 0.83264,1.2011 0.83462,1.37827 0.0578,5.16819 -1.93318,9.43142 -1.60717,12.97424 1.3751,14.94385 0.99832,0.65932 1.3457,0.73653 3.25148,0.72261 2.85497,-0.0209 4.3399,-0.67198 5.42132,-2.3772 1.0421,-1.64322 1.49491,-3.79599 2.00102,-9.51347 0.66054,-7.46183 1.27051,-9.12812 3.34148,-9.12812 1.84347,0 2.19626,1.43516 1.42713,5.80563 -0.21621,1.22857 -0.57292,4.03365 -0.7927,6.23351 -0.59198,5.92553 -1.2117,7.59726 -3.64722,9.83857 -2.76658,2.54597 -7.17581,3.73766 -10.49989,2.83781 z m -91.111656,-0.58677 c -0.927825,-0.96844 -0.935297,-2.29457 -0.03253,-5.77243 2.44035,-9.40128 3.062631,-12.16894 3.344878,-14.87666 0.307266,-2.94773 0.334897,-3.03425 1.122418,-3.51449 1.240118,-0.75624 2.199085,-0.63745 3.157406,0.39113 0.628052,0.6741 1.290897,2.20575 2.776693,6.41615 1.073439,3.04187 2.065179,5.74891 2.203871,6.01564 0.244507,0.47024 0.26855,0.47024 0.791549,0 0.296659,-0.26673 2.336353,-2.86622 4.532654,-5.77664 5.153908,-6.82967 6.057431,-7.8052 7.229067,-7.8052 0.642869,0 1.152393,0.24135 1.815304,0.85989 l 0.921583,0.8599 -0.506745,3.57187 c -1.008137,7.10598 -1.409272,12.15193 -1.22038,15.35139 0.169915,2.87806 0.147666,3.08932 -0.398455,3.7836 -0.503738,0.6404 -0.733409,0.72508 -1.778908,0.6559 -0.959448,-0.0635 -1.312092,-0.22949 -1.756285,-0.82677 -0.494094,-0.66438 -0.548754,-1.05821 -0.492411,-3.54783 0.06595,-2.91421 0.599461,-7.85963 1.261629,-11.69481 0.21192,-1.22741 0.35466,-2.2623 0.317198,-2.29976 -0.03746,-0.0375 -1.582669,1.99001 -3.4338,4.50548 -5.816774,7.90434 -8.099335,9.40082 -9.821971,6.43945 -0.787871,-1.35443 -1.705978,-3.79993 -2.531972,-6.74425 -0.336802,-1.20055 -0.685118,-2.1827 -0.774039,-2.18255 -0.160671,2.6e-4 -1.71523,7.18278 -2.797024,12.92309 -0.471623,2.50256 -0.673439,3.08433 -1.214107,3.49985 -0.933416,0.71736 -1.883902,0.63618 -2.715625,-0.23195 z"
       id="path826"
       inkscape:connector-curvature="0" />
  </g>
</svg>
