<?xml version="1.0" encoding="UTF-8" standalone="no"?>
<!-- Created with Inkscape (http://www.inkscape.org/) -->

<svg
   xmlns:dc="http://purl.org/dc/elements/1.1/"
   xmlns:cc="http://creativecommons.org/ns#"
   xmlns:rdf="http://www.w3.org/1999/02/22-rdf-syntax-ns#"
   xmlns:svg="http://www.w3.org/2000/svg"
   xmlns="http://www.w3.org/2000/svg"
   xmlns:sodipodi="http://sodipodi.sourceforge.net/DTD/sodipodi-0.dtd"
   xmlns:inkscape="http://www.inkscape.org/namespaces/inkscape"
   width="83.586044mm"
   height="25.568954mm"
   viewBox="0 0 83.586044 25.568954"
   version="1.1"
   id="svg8"
   inkscape:version="0.92.5 (2060ec1f9f, 2020-04-08)"
   sodipodi:docname="menu palette.svg">
  <defs
     id="defs2" />
  <sodipodi:namedview
     id="base"
     pagecolor="#ffffff"
     bordercolor="#666666"
     borderopacity="1.0"
     inkscape:pageopacity="0.0"
     inkscape:pageshadow="2"
     inkscape:zoom="0.98994949"
     inkscape:cx="-269.49999"
     inkscape:cy="-315.80169"
     inkscape:document-units="mm"
     inkscape:current-layer="layer1"
     showgrid="false"
     fit-margin-top="0"
     fit-margin-left="0"
     fit-margin-right="0"
     fit-margin-bottom="0"
     inkscape:window-width="1920"
     inkscape:window-height="1017"
     inkscape:window-x="1912"
     inkscape:window-y="-8"
     inkscape:window-maximized="1" />
  <metadata
     id="metadata5">
    <rdf:RDF>
      <cc:Work
         rdf:about="">
        <dc:format>image/svg+xml</dc:format>
        <dc:type
           rdf:resource="http://purl.org/dc/dcmitype/StillImage" />
        <dc:title></dc:title>
      </cc:Work>
    </rdf:RDF>
  </metadata>
  <g
     inkscape:label="Calque 1"
     inkscape:groupmode="layer"
     id="layer1"
     transform="translate(-54.296278,-39.708515)">
    <path
       style="fill:#72be5b;fill-opacity:1;stroke-width:0.26458332"
       d="m 54.945711,64.651166 c -0.409035,-0.40904 -0.649433,-0.95179 -0.649433,-1.46625 0,-0.44924 0.765442,-3.81817 1.700985,-7.4865 1.79533,-7.03963 2.391931,-9.95546 2.675218,-13.07481 0.194583,-2.14261 0.468863,-2.51694 1.876431,-2.56097 0.72704,-0.0227 1.067964,0.1262 1.446035,0.63171 0.272087,0.3638 1.338969,3.04271 2.370846,5.95313 2.687781,7.58087 2.687,7.57891 3.076565,7.72841 0.194924,0.0748 0.544827,-0.022 0.77756,-0.21519 0.232736,-0.19315 2.485165,-3.09374 5.005404,-6.44575 2.520235,-3.35201 5.057568,-6.55625 5.638517,-7.12054 1.151196,-1.1182 1.780513,-1.16411 2.952125,-0.2154 l 0.599099,0.48512 -0.692674,5.40521 c -1.095438,8.54816 -1.343496,12.50654 -0.902465,14.40105 0.358344,1.53932 0.255781,3.09843 -0.235346,3.57767 -0.608944,0.59419 -1.6177,0.55334 -2.372419,-0.0961 -0.761333,-0.65512 -0.764558,-0.67079 -0.703471,-3.41847 0.05158,-2.32023 0.466394,-6.98809 1.287028,-14.4829 l 0.159335,-1.45521 -0.695465,0.79375 c -0.382508,0.43657 -2.081014,2.63922 -3.774459,4.89479 -4.97209,6.62255 -6.246738,7.9375 -7.694173,7.9375 -0.965258,0 -1.688598,-1.29036 -3.355597,-5.98604 -2.198346,-6.19239 -2.176328,-6.13932 -2.346722,-5.65562 -0.246655,0.70017 -3.049796,13.8234 -3.362664,15.74271 -0.433525,2.65948 -1.462013,3.44694 -2.78026,2.12869 z m 33.614109,0.13744 c -2.481606,-0.60414 -3.772683,-2.28601 -4.009622,-5.22329 -0.325695,-4.03751 1.830803,-8.95546 5.23763,-11.94457 2.045799,-1.79495 5.150498,-2.4996 6.658838,-1.5113 1.50556,0.98648 1.49146,3.58597 -0.0315,5.8109 -0.9001,1.31495 -3.80167,3.63198 -6.610135,5.27847 -2.01644,1.18216 -2.171232,1.33459 -2.171232,2.13812 0,0.47587 0.243541,1.17483 0.541202,1.55324 1.554544,1.97628 5.330135,1.13074 8.813285,-1.97375 1.7227,-1.53542 2.28718,-1.64477 2.28718,-0.44307 0,2.14988 -3.9277,5.47325 -7.419518,6.27792 -1.334468,0.30753 -2.148387,0.31674 -3.296108,0.0373 z m 1.421916,-10.46457 c 0.990944,-0.65284 2.415855,-1.83634 3.16646,-2.63 1.11746,-1.18154 1.36475,-1.61368 1.36475,-2.38489 0,-0.85913 -0.0662,-0.94188 -0.75405,-0.94188 -1.660861,0 -4.179715,2.72587 -5.339598,5.77843 -0.28533,0.75093 -0.455893,1.36532 -0.379032,1.36532 0.07686,0 0.950524,-0.53414 1.94147,-1.18698 z m 45.376974,10.45165 c -0.92249,-0.37258 -1.67013,-2.30862 -1.88786,-4.88864 l -0.19644,-2.32783 -1.00525,1.46163 c -2.05185,2.98336 -5.26286,5.46475 -7.09156,5.48019 -1.00565,0.008 -2.40878,-1.03682 -3.01569,-2.24664 -0.78748,-1.56977 -0.68394,-4.4366 0.32955,-9.12463 0.45617,-2.11005 0.90248,-4.28842 0.9918,-4.84082 0.11448,-0.70801 0.34761,-1.08875 0.79008,-1.29035 0.89575,-0.40814 1.9613,-0.0632 2.26398,0.73296 0.30587,0.80449 0.21298,1.26284 -0.98668,4.86904 -1.14592,3.44466 -1.51971,7.51977 -0.75948,8.28 0.64518,0.64517 1.21118,0.56378 2.63425,-0.37882 2.30833,-1.52898 4.45312,-4.60739 6.10822,-8.76711 1.328,-3.33761 1.54296,-3.63199 2.65225,-3.63199 1.25071,0 1.3822,0.69021 0.69177,3.63108 -1.13814,4.84786 -0.98785,8.99979 0.38482,10.63112 0.86972,1.0336 0.82479,1.76935 -0.13846,2.26747 -0.87684,0.45342 -0.97732,0.46158 -1.7653,0.14334 z m -34.44209,-0.86563 c -0.54956,-0.66217 -0.59907,-1.69936 -0.19887,-4.16571 0.22432,-1.38245 0.5315,-4.41854 0.68263,-6.74687 0.21848,-3.36608 0.37317,-4.36885 0.75511,-4.8948 0.59747,-0.82275 1.50255,-0.98013 2.16886,-0.37712 0.72068,0.6522 0.66327,3.36288 -0.15928,7.52087 -0.35984,1.81901 -0.65472,3.42211 -0.65527,3.56243 -0.002,0.54684 0.80449,-0.62884 2.08119,-3.03326 3.01818,-5.68415 4.62087,-7.41666 7.04703,-7.61786 1.40485,-0.1165 1.49701,-0.0836 2.37668,0.84915 1.07049,1.13505 1.31719,1.93836 1.98204,6.45409 0.27186,1.84653 0.62565,3.70077 0.7862,4.12054 0.2852,0.74567 0.32519,0.7593 1.74013,0.593 1.42362,-0.16732 1.44821,-0.15864 1.44821,0.51096 0,1.08104 -0.48681,1.71572 -1.74179,2.27086 -1.3856,0.61292 -2.70984,0.4644 -3.50381,-0.39296 -0.68545,-0.74019 -1.04662,-2.15233 -1.51392,-5.91929 -0.63457,-5.11542 -1.58865,-6.15756 -3.65,-3.98691 -1.01823,1.07222 -1.55156,1.9525 -4.67398,7.71454 -1.62572,3.00007 -2.45715,3.87055 -3.69693,3.87055 -0.54919,0 -1.12259,-0.1495 -1.27423,-0.33221 z"
       id="path826"
       inkscape:connector-curvature="0" />
  </g>
</svg>
