<?xml version="1.0" encoding="UTF-8" standalone="no"?>
<!-- Created with Inkscape (http://www.inkscape.org/) -->

<svg
   xmlns:dc="http://purl.org/dc/elements/1.1/"
   xmlns:cc="http://creativecommons.org/ns#"
   xmlns:rdf="http://www.w3.org/1999/02/22-rdf-syntax-ns#"
   xmlns:svg="http://www.w3.org/2000/svg"
   xmlns="http://www.w3.org/2000/svg"
   xmlns:sodipodi="http://sodipodi.sourceforge.net/DTD/sodipodi-0.dtd"
   xmlns:inkscape="http://www.inkscape.org/namespaces/inkscape"
   width="106.36244mm"
   height="25.108746mm"
   viewBox="0 0 106.36244 25.108746"
   version="1.1"
   id="svg8"
   inkscape:version="0.92.5 (2060ec1f9f, 2020-04-08)"
   sodipodi:docname="menu-chic.svg">
  <defs
     id="defs2" />
  <sodipodi:namedview
     id="base"
     pagecolor="#ffffff"
     bordercolor="#666666"
     borderopacity="1.0"
     inkscape:pageopacity="0.0"
     inkscape:pageshadow="2"
     inkscape:zoom="0.35"
     inkscape:cx="-260.5"
     inkscape:cy="-185.57774"
     inkscape:document-units="mm"
     inkscape:current-layer="layer1"
     showgrid="false"
     fit-margin-top="0"
     fit-margin-left="0"
     fit-margin-right="0"
     fit-margin-bottom="0"
     inkscape:window-width="1920"
     inkscape:window-height="1017"
     inkscape:window-x="1912"
     inkscape:window-y="-8"
     inkscape:window-maximized="1" />
  <metadata
     id="metadata5">
    <rdf:RDF>
      <cc:Work
         rdf:about="">
        <dc:format>image/svg+xml</dc:format>
        <dc:type
           rdf:resource="http://purl.org/dc/dcmitype/StillImage" />
        <dc:title></dc:title>
      </cc:Work>
    </rdf:RDF>
  </metadata>
  <g
     inkscape:label="Calque 1"
     inkscape:groupmode="layer"
     id="layer1"
     transform="translate(-51.91503,-74.62381)">
    <path
       style="fill:#c57516;fill-opacity:1;stroke-width:0.26458332"
       d="m 92.726521,99.39042 c -5.207199,-1.26136 -7.94385,-7.05281 -5.979734,-12.65464 0.66127,-1.886 3.165332,-4.43065 4.958365,-5.03874 6.389238,-2.16683 12.601668,1.10853 13.065638,6.88855 l 0.13336,1.66143 h -6.688504 -6.688497 l 0.168502,1.61214 c 0.196684,1.88178 0.967664,3.77305 1.960901,4.81023 1.032,1.07766 3.016811,1.59849 4.733476,1.24212 1.677652,-0.34828 3.587232,-1.57595 4.336142,-2.78771 0.43325,-0.70102 0.73845,-0.90803 1.33874,-0.90803 h 0.77755 l -0.5219,1.02301 c -1.14764,2.24956 -2.70766,3.51726 -5.117945,4.15894 -1.687466,0.44924 -4.60495,0.44596 -6.476094,-0.007 z m 6.702624,-11.85538 c -0.44762,-2.8195 -2.130293,-4.95747 -3.903708,-4.95995 -1.538108,-0.002 -3.288065,2.33583 -3.577495,4.77961 l -0.154535,1.30482 h 3.907128 3.90713 z m 41.852625,11.98907 c -1.46431,-0.47234 -2.54989,-1.36774 -3.15994,-2.60634 -0.58235,-1.18236 -0.61857,-1.57835 -0.7009,-7.66294 l -0.0868,-6.41614 h -1.03767 c -0.97657,0 -1.03766,-0.0467 -1.03766,-0.79375 v -0.79375 h 3.67845 3.67846 l 0.0918,6.99233 c 0.0869,6.61549 0.12184,7.03257 0.64806,7.73906 0.3059,0.4107 0.84183,0.8486 1.19094,0.9731 1.08057,0.38535 2.80597,-0.26763 4.08391,-1.54557 1.69976,-1.69977 2.00554,-3.01409 1.91494,-8.23118 l -0.0731,-4.20795 -1.12448,-0.0814 c -1.04972,-0.076 -1.12448,-0.13312 -1.12448,-0.85989 v -0.77854 h 3.83646 3.83646 v 8.33437 8.33438 h 1.19062 c 1.14653,0 1.19063,0.0294 1.19063,0.79375 v 0.79375 h -3.70417 -3.70417 v -1.5875 c 0,-0.87313 -0.0429,-1.5875 -0.0953,-1.5875 -0.0524,0 -0.54238,0.42167 -1.08883,0.93704 -1.66268,1.5681 -3.42519,2.31283 -5.69505,2.40637 -1.09141,0.045 -2.31013,-0.0233 -2.70827,-0.15174 z M 51.91503,98.71369 c 0,-0.76435 0.0441,-0.79375 1.190625,-0.79375 H 54.29628 V 87.07202 76.22411 h -1.058333 c -1.001416,0 -1.058333,-0.043 -1.058333,-0.80015 v -0.80015 l 4.392538,0.0725 4.392539,0.0726 3.245802,7.88087 c 1.785194,4.33449 3.303008,7.93809 3.372924,8.008 0.106776,0.10677 4.465678,-11.29797 5.693527,-14.89668 l 0.383662,-1.12448 h 4.473046 4.473046 v 0.79375 c 0,0.76435 -0.0441,0.79375 -1.190625,0.79375 h -1.190625 v 10.84791 10.84792 h 1.190625 c 1.146526,0 1.190625,0.0294 1.190625,0.79375 v 0.79375 H 77.182739 71.758781 V 98.7137 c 0,-0.76435 0.0441,-0.79375 1.190625,-0.79375 h 1.190625 v -9.40832 c 0,-5.17458 -0.101402,-9.34566 -0.225338,-9.26906 -0.123936,0.0766 -0.4386,0.7087 -0.699254,1.40468 -0.385419,1.02911 -5.994924,15.44743 -7.054559,18.13259 -0.232505,0.58918 -0.453589,0.72761 -1.162063,0.72761 -0.812787,0 -0.912017,-0.0987 -1.397035,-1.38906 -0.287155,-0.76399 -1.316889,-3.41313 -2.288299,-5.88698 -0.971407,-2.47386 -2.487189,-6.34339 -3.368403,-8.59896 -0.881213,-2.25557 -1.705501,-4.21415 -1.831752,-4.3524 -0.130083,-0.14244 -0.229548,3.84156 -0.229548,9.19427 v 9.44563 h 1.322917 c 1.293519,0 1.322917,0.0177 1.322917,0.79375 v 0.79375 H 55.222322 51.91503 Z m 57.15001,0 c 0,-0.74965 0.0588,-0.79375 1.05833,-0.79375 h 1.05833 v -7.54063 -7.54062 h -1.05833 c -0.99954,0 -1.05833,-0.0441 -1.05833,-0.79375 v -0.79375 h 3.57187 3.57188 v 1.756 1.75599 l 1.33158,-1.24554 c 1.61111,-1.507 3.12793,-2.21524 5.2105,-2.43291 1.91635,-0.2003 4.11652,0.378 5.16331,1.35715 1.58833,1.48569 1.64865,1.79544 1.73898,8.92962 l 0.0829,6.54844 h 1.17385 c 1.1279,0 1.17386,0.0311 1.17386,0.79375 v 0.79375 h -5.02709 -5.02708 V 98.7289 c 0,-0.72677 0.0748,-0.78395 1.12448,-0.85989 l 1.12448,-0.0814 v -6.09775 c 0,-5.42944 -0.0523,-6.17743 -0.47686,-6.82483 -1.01897,-1.55367 -3.07642,-1.43599 -4.98126,0.28491 -2.01422,1.81973 -2.19496,2.46511 -2.20551,7.87517 l -0.009,4.7625 1.12448,0.0814 c 1.04972,0.0759 1.12448,0.13312 1.12448,0.85989 v 0.77854 h -4.89479 -4.89479 z"
       id="path826"
       inkscape:connector-curvature="0" />
  </g>
</svg>
