<?xml version="1.0" encoding="UTF-8" standalone="no"?>
<svg
   xmlns:dc="http://purl.org/dc/elements/1.1/"
   xmlns:cc="http://creativecommons.org/ns#"
   xmlns:rdf="http://www.w3.org/1999/02/22-rdf-syntax-ns#"
   xmlns:svg="http://www.w3.org/2000/svg"
   xmlns="http://www.w3.org/2000/svg"
   xmlns:xlink="http://www.w3.org/1999/xlink"
   viewBox="0 0 105.91721 113.66068"
   height="113.66068"
   width="105.91721"
   id="svg3713"
   version="1.1">
  <metadata
     id="metadata3719">
    <rdf:RDF>
      <cc:Work
         rdf:about="">
        <dc:format>image/svg+xml</dc:format>
        <dc:type
           rdf:resource="http://purl.org/dc/dcmitype/StillImage" />
        <dc:title></dc:title>
      </cc:Work>
    </rdf:RDF>
  </metadata>
  <defs
     id="defs3717">
    <linearGradient
       id="linearGradient3729">
      <stop
         id="stop3725"
         offset="0"
         style="stop-color:#ec5961;stop-opacity:1" />
      <stop
         id="stop3727"
         offset="1"
         style="stop-color:#f48f67;stop-opacity:1" />
    </linearGradient>
    <linearGradient
       gradientTransform="translate(-31.082793,-20.328587)"
       gradientUnits="userSpaceOnUse"
       y2="71.491524"
       x2="136.71187"
       y1="72.118645"
       x1="31.355932"
       id="linearGradient3731"
       xlink:href="#linearGradient3729" />
  </defs>
  <path
     id="path3723"
     d="m 5.7631479,111.50672 c -5.67220602,-3.28895 -7.232323,-8.25365 -4.346991,-13.833273 3.224861,-6.23619 13.0916401,-10.80283 20.7090391,-9.58476 l 3.792012,0.60637 V 54.380134 20.065222 l 9.75,-3.595122 C 55.279301,9.2385262 79.991677,3.0334852 96.417207,1.2163602 c 3.3,-0.36507301 6.787503,-0.89235801 7.750003,-1.17174601 1.64861,-0.478548 1.75,2.14932701 1.75,45.35924181 v 45.867221 l -2.69914,4.1627 c -6.973053,10.754043 -26.743643,11.062353 -30.352803,0.47332 -0.93688,-2.74871 -0.78509,-3.93334 0.96095,-7.5 3.07971,-6.290945 7.98789,-9.076919 16.84099,-9.559274 l 7.25,-0.395011 V 52.925104 27.397396 l -9.75,0.69481 c -17.76979,1.266322 -41.300796,5.599037 -51.499999,9.482587 l -2.75,1.047117 v 31.074411 c 0,36.923329 0.102677,36.500989 -10.210162,41.997619 -5.054348,2.69392 -13.120159,2.60976 -17.9438981,-0.18722 z M 51.661077,28.193829 c 13.47269,-3.460319 35.23447,-7.522417 40.29967,-7.522417 5.14651,0 5.95646,-0.830421 5.95646,-6.106989 0,-5.7331538 0.47072,-5.6068188 -12.61901,-3.386783 -12.52429,2.124135 -27.056656,5.908586 -39.880989,10.385618 l -11,3.840148 -0.318385,3.768517 c -0.297598,3.52249 -0.167028,3.724611 2,3.095986 1.275112,-0.369893 8.278126,-2.203229 15.562254,-4.07408 z"
     style="fill:url(#linearGradient3731);fill-opacity:1" />
</svg>
